<svg xmlns="http://www.w3.org/2000/svg" width="49" height="49" viewBox="0 0 49 49">
  <g id="Group_18055" data-name="Group 18055" transform="translate(-225 -911)">
    <circle id="Ellipse_1372" data-name="Ellipse 1372" cx="24.5" cy="24.5" r="24.5" transform="translate(225 911)" fill="#ededed"/>
    <g id="noun_Document_1773653_1_" data-name="noun_Document_1773653 (1)" transform="translate(242.387 926.016)">
      <path id="Path_70169" data-name="Path 70169" d="M183.281,86.495l-1.68-1.68-2.825-2.825-.741-.741a.56.56,0,0,0-.392-.18c-.1,0-.207,0-.312,0h-7.068a3.539,3.539,0,0,0-1.062.091,2.035,2.035,0,0,0-1.42,1.947c0,.565,0,1.131,0,1.7V98.547a2.233,2.233,0,0,0,.29,1.22,2,2,0,0,0,1.336.919,2.762,2.762,0,0,0,.454.032h11.311a2.674,2.674,0,0,0,1.147-.192,2.029,2.029,0,0,0,1.149-1.86v-11.8A.47.47,0,0,0,183.281,86.495Zm-6.755,9.219H171.3a.684.684,0,1,1,0-1.368h5.226a.684.684,0,0,1,0,1.368Zm3.411-3.146h-.016c-.351.009-.7,0-1.051,0H171.3a.684.684,0,1,1,0-1.368h.016c.351-.007.7,0,1.051,0h7.569a.684.684,0,1,1,0,1.368Zm-1.088-5.943c-.071,0-.139.007-.21,0l-.011,0h-.048l-.046,0c-.064-.016-.128-.032-.189-.052a.105.105,0,0,1-.023-.011c-.036-.018-.071-.039-.1-.059a.182.182,0,0,0-.03-.018l0,0a.131.131,0,0,1,.018.018.336.336,0,0,0-.03-.025l.009.007-.075-.068c-.023-.023-.043-.046-.064-.068,0,.007.009.011.009.014l-.018-.023v0a.057.057,0,0,1-.011-.018s0,0,0-.007c-.018-.03-.036-.059-.052-.091l-.02-.041a.209.209,0,0,0-.016-.03s.025.052.025.055c-.023,0-.048-.148-.057-.2v.011c0,.064-.018-.089,0-.027a.124.124,0,0,1,0,.018c0-.011,0-.025,0-.036s0-.043,0-.064c0,0,0-.009,0-.014,0-.025,0-.05,0-.075v-2.1c0-.283,0-.565,0-.848l1.012,1.012,2.743,2.743h-2.816Z" transform="translate(-167.78 -81.063)" fill="#05589c"/>
    </g>
  </g>
</svg>
