<svg xmlns="http://www.w3.org/2000/svg" width="49" height="49" viewBox="0 0 49 49">
  <g id="Group_18054" data-name="Group 18054" transform="translate(-130 -911)">
    <circle id="Ellipse_1371" data-name="Ellipse 1371" cx="24.5" cy="24.5" r="24.5" transform="translate(130 911)" fill="#ededed"/>
    <g id="noun_Video_1375497" transform="translate(144.226 928.387)">
      <g id="Group_18052" data-name="Group 18052" transform="translate(0 0)">
        <path id="Path_70167" data-name="Path 70167" d="M76.022,38.585V29.547a.9.9,0,0,0-.608-.833,1.222,1.222,0,0,0-1.129.1L72,30.233v7.641l2.257,1.445a1.3,1.3,0,0,0,.666.2.973.973,0,0,0,.463-.1A.887.887,0,0,0,76.022,38.585Z" transform="translate(-54.798 -27.338)" fill="#05589c"/>
        <path id="Path_70168" data-name="Path 70168" d="M14.1,28.551V39.242a1.547,1.547,0,0,0,1.551,1.551H28.289a1.547,1.547,0,0,0,1.551-1.551V28.551A1.547,1.547,0,0,0,28.289,27H15.651A1.565,1.565,0,0,0,14.1,28.551Z" transform="translate(-14.1 -27)" fill="#05589c"/>
      </g>
    </g>
  </g>
</svg>
