<svg xmlns="http://www.w3.org/2000/svg" width="13.039" height="16.332" viewBox="0 0 13.039 16.332">
    <g>
        <path fill="#c3c3c3" d="M180.661 85.577l-1.4-1.4-2.347-2.347-.616-.616a.465.465 0 0 0-.326-.15h-6.133a2.94 2.94 0 0 0-.883.076 1.691 1.691 0 0 0-1.18 1.618v12.833a1.855 1.855 0 0 0 .241 1.014 1.662 1.662 0 0 0 1.11.764 2.3 2.3 0 0 0 .377.027h9.4a2.222 2.222 0 0 0 .953-.159 1.686 1.686 0 0 0 .955-1.546v-9.809a.391.391 0 0 0-.151-.305zm-5.614 7.661h-4.342a.568.568 0 1 1 0-1.137h4.342a.568.568 0 0 1 0 1.137zm2.834-2.614h-.013c-.292.008-.584 0-.873 0h-6.29a.568.568 0 1 1 0-1.137h.013c.292-.006.584 0 .873 0h6.29a.568.568 0 1 1 0 1.137zm-.9-4.939c-.059 0-.116.006-.174 0h-.087c-.053-.013-.106-.027-.157-.044l-.019-.009c-.03-.015-.059-.032-.087-.049a.15.15 0 0 0-.025-.015.108.108 0 0 1 .015.015l-.025-.021.008.006-.062-.057-.053-.057c0 .006.008.009.008.011l-.015-.019a.047.047 0 0 1-.009-.015v-.006c-.015-.025-.03-.049-.044-.076l-.017-.034a.172.172 0 0 0-.013-.025l.021.045c-.019 0-.04-.123-.047-.169v.009c0 .053-.015-.074 0-.023a.1.1 0 0 1 0 .015v-.03-.053-.011-1.8-.7l.841.841 2.279 2.279h-2.34z" transform="translate(-167.78 -81.063)"/>
    </g>
</svg>
