<svg xmlns="http://www.w3.org/2000/svg" id="noun_Video_966159" width="18.507" height="10.117" viewBox="0 0 18.507 10.117">
    <defs>
        <style>
            .cls-1{fill:#a2a0a0}
        </style>
    </defs>
    <g id="Group_2058">
        <path id="Path_63611" d="M22.122 37.617H11.956a1.458 1.458 0 0 1-1.456-1.456v-7.205a1.459 1.459 0 0 1 1.456-1.456H22.1a1.458 1.458 0 0 1 1.456 1.456v7.181a1.443 1.443 0 0 1-1.434 1.48z" class="cls-1" transform="translate(-10.5 -27.5)"/>
        <path id="Path_63612" d="M67.5 32.02v4.392l4.071 2.295a.245.245 0 0 0 .37-.222v-8.538a.253.253 0 0 0-.37-.222z" class="cls-1" transform="translate(-53.435 -29.157)"/>
    </g>
</svg>
