<svg xmlns="http://www.w3.org/2000/svg" width="19.53" height="19.531" viewBox="0 0 19.53 19.531">
    <path fill="#8b8b8b" d="M10.6 1.534L4.057 8.217a3.533 3.533 0 0 0 0 5.167 3.425 3.425 0 0 0 2.7 1.01 4.129 4.129 0 0 0 2.606-1.24L15.852 6.4a.7.7 0 0 0-1-.965l-6.471 6.74A2.728 2.728 0 0 1 6.639 13a2.021 2.021 0 0 1-1.61-.606 2.139 2.139 0 0 1 0-3.2l6.565-6.68a3.834 3.834 0 0 1 5.422 5.422l-9.06 9.058A3.833 3.833 0 0 1 2.242 11.9a.7.7 0 1 0-1.091-.868 5.227 5.227 0 0 0 7.791 6.948L18 8.921a5.227 5.227 0 0 0-7.4-7.387z"/>
</svg>
