<svg xmlns="http://www.w3.org/2000/svg" width="20.36" height="20.361" viewBox="0 0 20.36 20.361">
    <path fill="#52534f" d="M11.055 1.6L4.229 8.566a3.683 3.683 0 0 0 0 5.387 3.571 3.571 0 0 0 2.812 1.053 4.3 4.3 0 0 0 2.717-1.293l6.767-7.036a.727.727 0 0 0-1.046-1.006l-6.742 7.022a2.844 2.844 0 0 1-1.816.861 2.107 2.107 0 0 1-1.678-.632 2.23 2.23 0 0 1 0-3.338l6.844-6.964a4 4 0 0 1 5.652 5.652l-9.445 9.444a4 4 0 0 1-5.957-5.311A.726.726 0 1 0 1.2 11.5a5.449 5.449 0 0 0 8.122 7.243L18.767 9.3a5.449 5.449 0 0 0-7.712-7.7z"/>
</svg>
