<svg xmlns="http://www.w3.org/2000/svg" xmlns:xlink="http://www.w3.org/1999/xlink" width="40" height="40" viewBox="0 0 40 40"><defs><style>.a{fill:#fff;}.b{fill:#e67603;}.c{filter:url(#a);}</style><filter id="a" x="0" y="0" width="40" height="40" filterUnits="userSpaceOnUse"><feOffset dy="3" input="SourceAlpha"/><feGaussianBlur stdDeviation="3" result="b"/><feFlood flood-opacity="0.161"/><feComposite operator="in" in2="b"/><feComposite in="SourceGraphic"/></filter></defs><g transform="translate(9.428 6.084)"><g class="c" transform="matrix(1, 0, 0, 1, -9.43, -6.08)"><circle class="a" cx="11" cy="11" r="11" transform="translate(9 6)"/></g><g transform="translate(5.574 6.22)"><path class="b" d="M6.189,2.942,8.214,4.966,3.089,10.091,1.066,8.066ZM9.75,2.453l-.9-.9a.9.9,0,0,0-1.266,0l-.865.865L8.741,4.44,9.75,3.431A.69.69,0,0,0,9.75,2.453ZM.006,10.912a.23.23,0,0,0,.279.274l2.256-.547L.518,8.614Z" transform="translate(-0.001 -1.289)"/></g></g></svg>