<svg xmlns="http://www.w3.org/2000/svg" width="22.811" height="14.703" viewBox="0 0 22.811 14.703"><defs><style>.a{fill:#c3c3c3;}</style></defs><g transform="translate(17.465 9.356)"><path class="a" d="M392.668,301a.668.668,0,1,0,.668.668A.669.669,0,0,0,392.668,301Z" transform="translate(-392 -301)"/></g><path class="a" d="M22.143,91H6.738v2A.668.668,0,1,1,5.4,93V91H.668A.668.668,0,0,0,0,91.668v4.01a.668.668,0,0,0,.668.668,2,2,0,0,1,0,4.01.668.668,0,0,0-.668.668v4.01a.668.668,0,0,0,.668.668H5.346v-2a.668.668,0,1,1,1.337,0v2h15.46a.668.668,0,0,0,.668-.668V91.668A.668.668,0,0,0,22.143,91ZM6.683,101.024a.668.668,0,1,1-1.337,0V99.688a.668.668,0,1,1,1.337,0Zm0-4.01a.668.668,0,1,1-1.337,0V95.678a.668.668,0,1,1,1.337,0Zm4.1-1.337a2,2,0,1,1,2,2A2.007,2.007,0,0,1,10.782,95.678Zm1.634,7.239a.668.668,0,0,1-.185-.927l5.346-8.02a.668.668,0,0,1,1.112.741l-5.346,8.02A.669.669,0,0,1,12.416,102.917Zm5.717.112a2,2,0,1,1,2-2A2.007,2.007,0,0,1,18.133,103.029Z" transform="translate(0 -91)"/><g transform="translate(12.118 4.01)"><path class="a" d="M272.668,181a.668.668,0,1,0,.668.668A.669.669,0,0,0,272.668,181Z" transform="translate(-272 -181)"/></g></svg>