<svg xmlns="http://www.w3.org/2000/svg" width="24.737" height="20.173" viewBox="0 0 24.737 20.173">
    <g>
        <path fill="#05589c" stroke="rgba(0,0,0,0)" stroke-miterlimit="10" d="M20.54 19.173a.447.447 0 0 1-.272-.092l-3.528-2.647H9.586a1.377 1.377 0 0 1-1.369-1.37v-3.2h5.934a2.286 2.286 0 0 0 2.283-2.283V5.478h5.934a1.376 1.376 0 0 1 1.369 1.37v8.216a1.377 1.377 0 0 1-1.369 1.37H21v2.282a.447.447 0 0 1-.251.406.454.454 0 0 1-.209.051zM3.2 13.695a.453.453 0 0 1-.366-.183.461.461 0 0 1-.091-.273v-2.283H1.37A1.374 1.374 0 0 1 0 9.586V1.37A1.374 1.374 0 0 1 1.37 0h12.781a1.374 1.374 0 0 1 1.369 1.37v8.216a1.374 1.374 0 0 1-1.369 1.37H7L3.47 13.6a.453.453 0 0 1-.27.095zm5.972-9.764v2.621h2.62V3.931zm-5.241 0v2.621h2.621V3.931z" transform="translate(.5 .5)"/>
    </g>
</svg>
