<svg xmlns="http://www.w3.org/2000/svg" width="16.946" height="16.946" viewBox="0 0 16.946 16.946">
    <path fill="#4d6fa9" d="M15.778 16.946H1.169A1.172 1.172 0 0 1 0 15.778V1.169A1.172 1.172 0 0 1 1.169 0h14.609a1.172 1.172 0 0 1 1.169 1.169v14.609a1.172 1.172 0 0 1-1.169 1.169"/>
    <path fill="#fff" d="M185.025 88.275V91.2H182.4a.586.586 0 0 0-.584.584v1.753h2.922v2.922h-2.922v5.841h-2.922v-5.844h-2.337v-2.922h2.337v-1.753a3.505 3.505 0 0 1 3.214-3.506h2.922z" transform="translate(-170.708 -85.353)"/>
</svg>
