<svg xmlns="http://www.w3.org/2000/svg" width="140.038" height="112" viewBox="0 0 140.038 112">
    <defs>
        <style>
            .cls-1{fill:#042875;opacity:.098}.cls-3{fill:#03579c}
        </style>
    </defs>
    <g id="Group_19644" transform="translate(-97.607 -290.29)">
        <g id="Group_17039" transform="translate(97.21 289.96)">
            <circle id="Ellipse_1223" cx="17.5" cy="17.5" r="17.5" class="cls-1" transform="translate(94.397 5.33)"/>
            <ellipse id="Ellipse_1222" cx="11.5" cy="12" class="cls-1" rx="11.5" ry="12" transform="translate(114.397 83.33)"/>
            <ellipse id="Ellipse_1234" cx="11" cy="12" class="cls-1" rx="11" ry="12" transform="translate(.397 28.33)"/>
            <ellipse id="Ellipse_1221" cx="6" cy="5.5" class="cls-1" rx="6" ry="5.5" transform="translate(68.397 .33)"/>
        </g>
        <circle id="Ellipse_1225" cx="5.5" cy="5.5" r="5.5" class="cls-1" transform="translate(151.607 391.29)"/>
        <g id="debit-card" transform="translate(131.072 306.731)">
            <path id="Path_70041" fill="#e6eaf1" d="M20.446 109.315V58.392A6.4 6.4 0 0 1 26.892 52h-6.446A6.4 6.4 0 0 0 14 58.392v50.923a6.492 6.492 0 0 0 6.446 6.5h6.446a6.492 6.492 0 0 1-6.446-6.5z" transform="translate(-12.711 -50.71)"/>
            <g id="Group_17010">
                <path id="Path_70044" d="M99.1 46H15.735A7.7 7.7 0 0 0 8 53.681V104.6a7.79 7.79 0 0 0 7.734 7.789h53.5v-2.578h-53.5a5.209 5.209 0 0 1-5.157-5.21v-28.95h11.174a1.289 1.289 0 1 0 0-2.578H10.578V62.759h93.682v10.314H30.346a1.289 1.289 0 1 0 0 2.578h73.914v20.627h2.578v-42.6A7.7 7.7 0 0 0 99.1 46zM10.578 60.181v-6.5a5.117 5.117 0 0 1 5.157-5.1H99.1a5.117 5.117 0 0 1 5.157 5.1v6.5z" class="cls-3" transform="translate(-8 -46)"/>
                <path id="Path_70045" d="M49.628 232a7.628 7.628 0 1 0 0 15.255h15.04a7.628 7.628 0 1 0 0-15.255zm20.09 7.628a5.055 5.055 0 0 1-5.049 5.049H49.628a5.049 5.049 0 1 1 0-10.1h15.04a5.055 5.055 0 0 1 5.05 5.051z" class="cls-3" transform="translate(-34.695 -192.035)"/>
                <path id="Path_70046" d="M40.956 138h-.012a1.311 1.311 0 0 0-1.289 1.3 1.274 1.274 0 0 0 1.277 1.283l1.354-.006h.014a1.264 1.264 0 0 0 1.289-1.246 1.3 1.3 0 0 0-1.277-1.311z" class="cls-3" transform="translate(-32.853 -118.232)"/>
                <path id="Path_70047" d="M99.756 140.793a1.265 1.265 0 0 0 1.289-1.254 1.32 1.32 0 0 0-1.282-1.331L66.244 138h-.007a1.332 1.332 0 0 0-1.289 1.332 1.286 1.286 0 0 0 1.283 1.292l33.519.169z" class="cls-3" transform="translate(-52.712 -118.232)"/>
            </g>
        </g>
        <g id="Group_19641" transform="translate(-54.631 69.053)">
            <path id="Path_70048" fill="#f05e23" d="M309.882 248.733a23.4 23.4 0 1 0 23.4 23.4 23.4 23.4 0 0 0-23.4-23.4zm0 44.217a20.818 20.818 0 1 1 20.818-20.818 20.818 20.818 0 0 1-20.818 20.818z" transform="translate(-41.005 32.313)"/>
        </g>
    </g>
</svg>
