<svg xmlns="http://www.w3.org/2000/svg" width="140" height="120.751" viewBox="0 0 140 120.751">
    <defs>
        <clipPath id="clip-path">
            <path id="Rectangle_8675" d="M0 0H79.654V90.906H0z" class="cls-1"/>
        </clipPath>
        <style>
            .cls-1,.cls-2,.cls-6{fill:#03579c}.cls-1{stroke:#03579c}.cls-2{opacity:.098}
        </style>
    </defs>
    <g id="Group_19606" transform="translate(-6876 -20664.999)">
        <g id="Group_19307" transform="translate(6876 20665.002)">
            <ellipse id="Ellipse_1223" cx="24" cy="23.5" class="cls-2" rx="24" ry="23.5" transform="translate(92.001 62.997)"/>
            <ellipse id="Ellipse_1222" cx="16" cy="16.5" class="cls-2" rx="16" ry="16.5" transform="translate(12.001 -.003)"/>
            <circle id="Ellipse_1221" cx="8" cy="8" r="8" class="cls-2" transform="translate(.001 59.997)"/>
        </g>
        <circle id="Ellipse_1370" cx="7" cy="7" r="7" fill="#042875" opacity="0.098" transform="translate(6998 20700)"/>
        <path id="Path_70436" fill="none" stroke="#f05e23" stroke-width="3.5px" d="M155.28 522.513a22.421 22.421 0 1 1 22.329-22.421 22.4 22.4 0 0 1-22.329 22.421z" transform="translate(6806.681 20261.486)"/>
        <path id="Path_70437" fill="none" stroke="#f05e23" stroke-linecap="round" stroke-linejoin="round" stroke-width="3.5px" d="M119.077 476.516l6.384 5.754 11.5-12.634" transform="translate(6833.643 20285.967)"/>
        <g id="login" transform="translate(6912.362 20733.895)">
            <g id="Group_19577">
                <g id="Group_19576">
                    <g id="Group_19599">
                        <circle id="Ellipse_1374" cx="3.5" cy="3.5" r="3.5" class="cls-6" transform="translate(26.638 .106)"/>
                        <circle id="Ellipse_1375" cx="3.5" cy="3.5" r="3.5" class="cls-6" transform="translate(-.362 .106)"/>
                        <ellipse id="Ellipse_1376" cx="3" cy="3.5" class="cls-6" rx="3" ry="3.5" transform="translate(13.638 .106)"/>
                    </g>
                </g>
            </g>
        </g>
        <g id="Group_19308" transform="translate(6893.224 20680.311)">
            <g id="Group_19597" clip-path="url(#clip-path)">
                <path id="Path_72484" d="M11.662 85.165A11.691 11.691 0 0 1 0 73.5V44.688a11.691 11.691 0 0 1 11.664-11.659h6.6V18.244A18.552 18.552 0 0 1 36.751 0h.4a18.557 18.557 0 0 1 18.488 18.274v14.755h6.615a11.692 11.692 0 0 1 11.659 11.662v7.14a1.121 1.121 0 0 1-1.121 1.064 1.136 1.136 0 0 1-.808-.343 1.118 1.118 0 0 1-.315-.8v-7.064a9.444 9.444 0 0 0-9.412-9.418h-50.6a9.441 9.441 0 0 0-9.419 9.415V73.5a9.442 9.442 0 0 0 9.418 9.42h27.873a1.123 1.123 0 0 1-.057 2.244zM36.744 2.243A16.319 16.319 0 0 0 20.506 18.2v14.829h32.887V18.245a16.327 16.327 0 0 0-16.236-16z" class="cls-1" transform="translate(2.871 2.87)"/>
            </g>
        </g>
    </g>
</svg>
