<svg xmlns="http://www.w3.org/2000/svg" width="145" height="124" viewBox="0 0 145 124">
    <defs>
        <style>
            .cls-1{fill:#042875;opacity:.098}.cls-2{fill:#e6eaf1}.cls-3{fill:#03579c;stroke:#03579c}.cls-4{fill:#f05e23;stroke:#f05e23}
        </style>
    </defs>
    <g id="Group_19273" transform="translate(-104.144 -258.769)">
        <g id="Group_17039" transform="translate(104 259)">
            <ellipse id="Ellipse_1223" cx="19" cy="19.5" class="cls-1" rx="19" ry="19.5" transform="translate(101.144 -.232)"/>
            <ellipse id="Ellipse_1222" cx="12.5" cy="13" class="cls-1" rx="12.5" ry="13" transform="translate(120.144 97.769)"/>
            <ellipse id="Ellipse_1234" cx="12.5" cy="13" class="cls-1" rx="12.5" ry="13" transform="translate(.144 36.768)"/>
            <ellipse id="Ellipse_1221" cx="6.5" cy="6" class="cls-1" rx="6.5" ry="6" transform="translate(75.144 -.232)"/>
        </g>
        <circle id="Ellipse_1225" cx="6" cy="6" r="6" class="cls-1" transform="translate(123.144 362.769)"/>
        <g id="Group_17071" transform="translate(143.369 292.06)">
            <path id="Subtraction_1" d="M16.16 82.649H8a8.009 8.009 0 0 1-8-8V8a8.009 8.009 0 0 1 8-8h8.16a8.013 8.013 0 0 0-7.82 8v66.649a8.01 8.01 0 0 0 7.82 8z" class="cls-2" transform="translate(.2)"/>
            <g id="Group_17069" transform="translate(0 .084)">
                <path id="Path_70269" d="M324.081 347.18a22.549 22.549 0 0 1-14.055-4.929v-2.646a14.033 14.033 0 0 1 8.215-12.809 9.325 9.325 0 0 0 11.679 0 14.039 14.039 0 0 1 8.216 12.808v2.646a22.55 22.55 0 0 1-14.055 4.93z" class="cls-2" transform="translate(-289.124 -275.845)"/>
                <path id="Path_70270" d="M277.906 316.111a6.176 6.176 0 0 1-6.134-6.182v-70.2a6.178 6.178 0 0 1 6.139-6.185h88.266a6.176 6.176 0 0 1 6.134 6.183v70.2a6.177 6.177 0 0 1-6.135 6.185h-88.27zm-4.044-6.185a4.08 4.08 0 0 0 4.035 4.1h88.279a4.083 4.083 0 0 0 4.044-4.1v-59.192h-96.358zm4.035-74.291a4.081 4.081 0 0 0-4.035 4.1v8.906h96.359v-8.913a4.08 4.08 0 0 0-4.036-4.1H277.9z" class="cls-3" transform="translate(-271.772 -233.546)"/>
                <path id="Path_70271" d="M394.316 306.721a1.045 1.045 0 1 1 0-2.089h21.61a1.045 1.045 0 1 1 0 2.089z" class="cls-3" transform="translate(-326.885 -265.791)"/>
                <path id="Path_70272" d="M394.316 323.1a1.045 1.045 0 1 1 0-2.089h21.61a1.045 1.045 0 0 1 0 2.089z" class="cls-3" transform="translate(-326.885 -273.219)"/>
                <path id="Path_70273" d="M394.316 339.469a1.045 1.045 0 1 1 0-2.089h21.61a1.045 1.045 0 1 1 0 2.089z" class="cls-3" transform="translate(-326.885 -280.646)"/>
                <path id="Path_70274" d="M327.925 313.209a9.451 9.451 0 0 1-9.425-9.425v-2.24a9.424 9.424 0 1 1 18.848 0v2.241a9.451 9.451 0 0 1-9.423 9.424zm0-19a7.343 7.343 0 0 0-7.334 7.335v2.241a7.335 7.335 0 0 0 7.335 7.335 7.343 7.343 0 0 0 7.334-7.335v-2.241a7.344 7.344 0 0 0-7.335-7.335z" class="cls-4" transform="translate(-292.968 -260.115)"/>
                <path id="Path_70275" d="M315.391 327.078a24.5 24.5 0 1 1 18.844-8.825 24.535 24.535 0 0 1-18.844 8.825zm.014-46.919a22.414 22.414 0 1 0 22.415 22.415 22.475 22.475 0 0 0-22.42-22.415z" class="cls-4" transform="translate(-280.449 -253.742)"/>
            </g>
        </g>
    </g>
</svg>
