<svg xmlns="http://www.w3.org/2000/svg" width="12.756" height="21.973" viewBox="0 0 12.756 21.973">
  <g id="Others" transform="translate(-13848.082 7328.891)">
    <path id="female-gender" d="M12.756,5.378A6.378,6.378,0,1,0,5.315,11.66v1.774H3.189V15.56H5.315v4.279H7.441V15.56H9.567V13.434H7.441V11.66A6.383,6.383,0,0,0,12.756,5.378Zm-10.63,0A4.252,4.252,0,1,1,6.378,9.63,4.257,4.257,0,0,1,2.126,5.378Z" transform="translate(13848.082 -7327.891)" fill="#c3c3c3"/>
    <g id="noun_Angle_Down_1965560" data-name="noun_Angle Down_1965560" transform="translate(13850.45 -7311.946)">
      <g id="Group_19766" data-name="Group 19766" transform="translate(0 0)">
        <path id="Path_70439" data-name="Path 70439" d="M13.506,30.667,9.479,26.955l1.164-1.316L13.506,28.5l2.863-2.863,1.223,1.316Z" transform="translate(-9.479 -25.639)" fill="#c3c3c3"/>
      </g>
    </g>
  </g>
</svg>
