<svg xmlns="http://www.w3.org/2000/svg" width="20.305" height="20.305" viewBox="0 0 20.305 20.305">
    <path fill="#167ee6" d="M276.075 211.479h-8.282a.662.662 0 0 0-.662.662v2.646a.662.662 0 0 0 .662.662h4.664a6.226 6.226 0 0 1-2.68 3.141l1.989 3.443a9.955 9.955 0 0 0 5.076-8.706 6.712 6.712 0 0 0-.114-1.3.665.665 0 0 0-.653-.548z" transform="translate(-256.537 -203.092)"/>
    <path fill="#12b347" d="M43.2 336.939a6.178 6.178 0 0 1-5.345-3.092l-3.442 1.984a10.144 10.144 0 0 0 13.864 3.721l-1.991-3.452a6.134 6.134 0 0 1-3.086.839z" transform="translate(-33.046 -320.608)"/>
    <path fill="#0f993e" d="M261.076 394.226l-1.989-3.443a6.134 6.134 0 0 1-3.087.835v3.973a10.135 10.135 0 0 0 5.076-1.365z" transform="translate(-245.848 -375.282)"/>
    <path fill="#ffd500" d="M3.973 133.19a6.134 6.134 0 0 1 .835-3.087l-3.442-1.984a10.106 10.106 0 0 0 0 10.143l3.442-1.984a6.134 6.134 0 0 1-.835-3.088z" transform="translate(0 -123.038)"/>
    <path fill="#ff4b26" d="M43.2 3.973a6.151 6.151 0 0 1 3.923 1.409.66.66 0 0 0 .888-.04l1.875-1.875a.667.667 0 0 0-.038-.976 10.13 10.13 0 0 0-15.435 2.59l3.442 1.984A6.178 6.178 0 0 1 43.2 3.973z" transform="translate(-33.046)"/>
    <path fill="#d93f21" d="M259.923 5.381a.66.66 0 0 0 .888-.04l1.875-1.875a.667.667 0 0 0-.038-.976A10.122 10.122 0 0 0 256 0v3.973a6.151 6.151 0 0 1 3.923 1.408z" transform="translate(-245.848)"/>
</svg>
