<svg xmlns="http://www.w3.org/2000/svg" width="178" height="139" viewBox="0 0 178 139">
    <defs>
        <style>
            .cls-1{fill:#042875;opacity:.098}.cls-3{fill:#03579c}.cls-4{fill:#f05e23}
        </style>
    </defs>
    <g id="Group_19761" transform="translate(-124.25 -289.746)">
        <g id="Group_17039" transform="translate(124 290.001)">
            <ellipse id="Ellipse_1223" cx="22.5" cy="23" class="cls-1" rx="22.5" ry="23" transform="translate(122.25 6.745)"/>
            <ellipse id="Ellipse_1222" cx="15" cy="15.5" class="cls-1" rx="15" ry="15.5" transform="translate(148.25 107.745)"/>
            <ellipse id="Ellipse_1234" cx="14.5" cy="15.5" class="cls-1" rx="14.5" ry="15.5" transform="translate(.25 36.745)"/>
            <circle id="Ellipse_1221" cx="7.5" cy="7.5" r="7.5" class="cls-1" transform="translate(89.25 -.255)"/>
        </g>
        <path id="Path_70018" fill="#e6eaf1" d="M25.573 127.41h-8.192A6.386 6.386 0 0 0 11 133.8v68.932a6.384 6.384 0 0 0 6.381 6.39h8.192a6.384 6.384 0 0 1-6.381-6.39V133.8a6.386 6.386 0 0 1 6.381-6.39z" transform="translate(139.32 203.466)"/>
        <g id="Group_17009" transform="translate(148.682 329.239)">
            <g id="Group_19612" transform="translate(6.908 10.274)">
                <path id="Path_70019" d="M123.578 172.456h-23.522a1.638 1.638 0 1 0 0 3.277h23.522a1.638 1.638 0 1 0 0-3.277z" class="cls-3" transform="translate(-79.817 -168.791)"/>
                <path id="Path_70020" d="M55.023 175.733H60.2a1.638 1.638 0 0 0 0-3.277h-5.177a1.638 1.638 0 0 0 0 3.277z" class="cls-3" transform="translate(-47.081 -168.791)"/>
                <path id="Path_70021" d="M167.327 236.026h-7.088a1.638 1.638 0 1 0 0 3.277h7.088a1.638 1.638 0 1 0 0-3.277z" class="cls-3" transform="translate(-123.566 -215.002)"/>
                <path id="Path_70022" d="M55.023 239.3h21.719a1.638 1.638 0 1 0 0-3.277H55.023a1.638 1.638 0 1 0 0 3.277z" class="cls-3" transform="translate(-47.081 -215.002)"/>
                <path id="Path_70023" d="M128.726 299.6h-21.588a1.638 1.638 0 1 0 0 3.277h21.587a1.638 1.638 0 1 0 0-3.277z" class="cls-3" transform="translate(-84.965 -261.217)"/>
                <path id="Path_70024" d="M55.023 302.877h7.137a1.638 1.638 0 0 0 0-3.277h-7.137a1.638 1.638 0 1 0 0 3.277z" class="cls-3" transform="translate(-47.081 -261.217)"/>
                <path id="Path_70025" d="M164.9 363.167h-8a1.638 1.638 0 1 0 0 3.277h8a1.638 1.638 0 0 0 0-3.277z" class="cls-3" transform="translate(-121.137 -307.426)"/>
                <path id="Path_70026" d="M55.023 366.444H75.9a1.638 1.638 0 0 0 0-3.277H55.023a1.638 1.638 0 1 0 0 3.277z" class="cls-3" transform="translate(-47.081 -307.426)"/>
                <path id="Path_70027" d="M321.992 174.094a1.638 1.638 0 0 0 1.638 1.638h10.915a1.638 1.638 0 0 0 0-3.277H323.63a1.638 1.638 0 0 0-1.638 1.639z" class="cls-3" transform="translate(-242.342 -168.791)"/>
                <path id="Path_70028" d="M283.757 175.733h3.85a1.638 1.638 0 0 0 0-3.277h-3.85a1.638 1.638 0 0 0 0 3.277z" class="cls-3" transform="translate(-213.356 -168.791)"/>
                <path id="Path_70029" d="M378.316 239.3h10a1.638 1.638 0 0 0 0-3.277h-10a1.638 1.638 0 1 0 0 3.277z" class="cls-3" transform="translate(-282.095 -215.002)"/>
                <path id="Path_70030" d="M283.757 239.3h18.592a1.638 1.638 0 0 0 0-3.277h-18.592a1.638 1.638 0 0 0 0 3.277z" class="cls-3" transform="translate(-213.356 -215.002)"/>
                <path id="Path_70031" d="M352.964 299.6h-23.276a1.638 1.638 0 1 0 0 3.277h23.276a1.638 1.638 0 1 0 0-3.277z" class="cls-3" transform="translate(-246.746 -261.217)"/>
                <path id="Path_70032" d="M283.757 302.877h5.573a1.638 1.638 0 1 0 0-3.277h-5.573a1.638 1.638 0 1 0 0 3.277z" class="cls-3" transform="translate(-213.356 -261.217)"/>
                <path id="Path_70033" d="M400.925 363.167h-5.26a1.638 1.638 0 1 0 0 3.277h5.26a1.638 1.638 0 1 0 0-3.277z" class="cls-3" transform="translate(-294.706 -307.426)"/>
                <path id="Path_70034" d="M283.757 366.444h23.617a1.638 1.638 0 1 0 0-3.277h-23.617a1.638 1.638 0 1 0 0 3.277z" class="cls-3" transform="translate(-213.356 -307.426)"/>
                <path id="Path_70035" d="M33.577 160.676a1.638 1.638 0 1 0-3.277 0v1.724a1.638 1.638 0 0 0 3.277 0z" class="cls-3" transform="translate(-30.3 -159.038)"/>
                <path id="Path_70036" d="M31.938 188.333a1.638 1.638 0 0 0-1.638 1.638v17.2a1.638 1.638 0 1 0 3.277 0v-17.2a1.638 1.638 0 0 0-1.639-1.638z" class="cls-3" transform="translate(-30.3 -180.332)"/>
            </g>
            <path id="Path_70037" d="M130.438 198.372a4.753 4.753 0 0 1-4.744 4.751H76.557a2.625 2.625 0 0 0-1.833.746l-3.452 3.364-.544-13.427a1.638 1.638 0 1 0-3.277.033l.543 13.318-3.374-3.289a2.625 2.625 0 0 0-1.833-.745H13.021a4.753 4.753 0 0 1-4.744-4.751V129.44a4.753 4.753 0 0 1 4.744-4.751h47.315a6.916 6.916 0 0 1 6.9 6.92l.1 51.308a1.638 1.638 0 1 0 3.277-.033l-.1-51.292h.009a6.912 6.912 0 0 1 6.9-6.9h26.444v-3.277H77.43a10.179 10.179 0 0 0-8.547 4.66 10.179 10.179 0 0 0-8.547-4.66H13.021A8.034 8.034 0 0 0 5 129.44v68.932a8.033 8.033 0 0 0 8.021 8.028h49.5l5.316 5.182a2.611 2.611 0 0 0 3.666 0l5.315-5.182h48.872a8.033 8.033 0 0 0 8.021-8.028v-59.078h-3.277z" class="cls-3" transform="translate(-5 -121.412)"/>
        </g>
        <path id="Path_70040" d="M380.263 57.648a19.918 19.918 0 0 0-15.725 31.207 1.637 1.637 0 1 0 2.7-1.857 16.66 16.66 0 1 1 7.912 6.176 1.65 1.65 0 0 0-1.75.368 1.638 1.638 0 0 0 .585 2.693 19.93 19.93 0 1 0 6.283-38.589z" class="cls-4" transform="translate(-115.124 254.187)"/>
        <path id="Path_70436" d="M429.646 114.411a1.638 1.638 0 0 0-1.638 1.638v11.973a1.638 1.638 0 0 0 3.277 0v-11.973a1.638 1.638 0 0 0-1.638-1.638z" class="cls-4" transform="translate(-163.819 212.916)"/>
        <path id="Path_70437" d="M428.593 94.867a2.034 2.034 0 1 0 2.034 2.034 2.034 2.034 0 0 0-2.034-2.034z" class="cls-4" transform="translate(-162.766 227.123)"/>
    </g>
</svg>
