<svg xmlns="http://www.w3.org/2000/svg" width="98.628" height="52.184" viewBox="0 0 98.628 52.184"><defs><style>.a{fill:#039c03;}.b{fill:#03579c;}.c{fill:#f40334;}.d{fill:#e67603;}</style></defs><g transform="translate(-48.394 -120.993)"><g transform="translate(78.87 120.993)"><g transform="translate(15.513 36.664)"><path class="a" d="M201.542,243.935a.692.692,0,0,1,.035-1.384.7.7,0,0,1,.677.693A.692.692,0,0,1,201.542,243.935Z" transform="translate(-200.87 -242.551)"/><path class="a" d="M221.122,243.23a.689.689,0,0,1-.7.7.681.681,0,0,1-.684-.677.691.691,0,0,1,.657-.707A.7.7,0,0,1,221.122,243.23Z" transform="translate(-214.047 -242.55)"/><path class="b" d="M211.009,243.4a.693.693,0,1,1-.7.657A.7.7,0,0,1,211.009,243.4Z" transform="translate(-207.458 -243.142)"/></g><g transform="translate(19.696 3.249)"><path class="a" d="M218.459,166.331a1.585,1.585,0,0,0-.068.214c0,.022.077-.02.131-.065s.2-.177.184-.21S218.507,166.283,218.459,166.331Z" transform="translate(-217.289 -155.854)"/><path class="a" d="M255.345,165.61c-.02.033.129.164.184.21s.127.087.131.066a1.57,1.57,0,0,0-.068-.214C255.544,165.623,255.365,165.577,255.345,165.61Z" transform="translate(-243.096 -155.394)"/><path class="a" d="M230.037,146.515s-.622-13.3-14.949-14.733c-.349-.113-.347.346-.347.346l0,14.606s-.05.4.34.368c.218,0,.366,0,.366,0l14.125-.009a1.312,1.312,0,0,0,.416-.046C230.083,147,230.037,146.515,230.037,146.515Zm-2.5-3.728s.036.1-.1.068a.884.884,0,0,1-.208-.074s-.024.113-.182.013a2.7,2.7,0,0,1-.522-.4c-.028-.059-.164-.209-.224-.3a.023.023,0,0,1-.025,0s-1.9-.8-2.046-.95-.311-.463-.415-.557c-.059-.053-.3-.312-.5-.53h0l-.065-.07-.019-.02-.034-.038-.172-.188s-.128.361-.177.556a5.467,5.467,0,0,0-.1.757c0,.033,0,.062,0,.084,0,0,0,.009,0,.014a.417.417,0,0,0,.007.042c.006.031.016.068.028.11s.027.087.043.134c.079.234.188.5.188.5h0c.075.044.153.094.235.154,0,0,.326.1.438.126a.125.125,0,0,0,.037,0c.223-.017,1.183-.307,1.529-.307.373,0,.493-.022.627.045a1.342,1.342,0,0,1,.388.746,6.018,6.018,0,0,1-1.149.947,2,2,0,0,1-.5.239h0c-.182.048-.708.2-1.309.377l-.222.066c.074.011.153.027.222.034a7.543,7.543,0,0,1,1.149.119c.217.082.47.4.313.552s-.544.089-.738.052-1.142-.067-1.261-.1a1.938,1.938,0,0,1-.5-.194.521.521,0,0,0-.084-.037h0l-.237.171-.164-.052h0l-.256-.081h0l-.63.188a.411.411,0,0,0-.032-.1c-.12.048-.243.078-.321.1-.119.037-1.067.067-1.261.1s-.582.1-.738-.052.1-.47.313-.552a7.543,7.543,0,0,1,1.149-.119c.039,0,.082-.011.125-.018l-1.479-.471a1.177,1.177,0,0,1-.458-.227c-.172-.149-1.127-.791-1.149-.947a1.342,1.342,0,0,1,.388-.746c.134-.067.254-.045.627-.045s1.455.336,1.567.306a1.641,1.641,0,0,0,.256-.122l.122-.068c.062-.144.1-.242.131-.318l.015-.041c.011-.033.021-.061.028-.087a1.031,1.031,0,0,0,.03-.18,1.409,1.409,0,0,0,.012-.242,1.711,1.711,0,0,0-.052-.33c-.019-.077-.049-.17-.084-.268-.114-.316-.279-.677-.279-.677s-.756.838-.821.937a1.533,1.533,0,0,1-.492.46c-.234.124-1.647.99-1.647.99h0c-.054.085-.2.249-.233.311a2.163,2.163,0,0,1-.548.417c-.167.082-.155-.03-.155-.03a.864.864,0,0,1-.223.073c-.137.025-.084-.066-.084-.066-.031-.009-.249.1-.254.022s.332-.359.337-.38-.044-.031-.083-.074.148-.332.175-.393a.681.681,0,0,1,.275-.219c.092-.035.367.057.5.057h.113c.08-.06,1.211-1.281,1.441-1.4a2.573,2.573,0,0,0,.718-.735l-.06-.049c.123-.171.237-.358.266-.393.074-.089.483-.783.7-.893.177-.088.938-.349,1.223-.445a.482.482,0,0,1,.05-.018,4.548,4.548,0,0,0,.073-.458,1.329,1.329,0,0,1-.243-.623h0c-.018.017-.031-.014-.031-.014a1.565,1.565,0,0,1-.1-.459c.014-.038.038-.04.059-.03a3.324,3.324,0,0,1-.049-.6c.03-.085.127-.6,1.162-.294,0,0,.323-.068.388.154a2.517,2.517,0,0,1-.042.756c.024-.014.054-.02.069.026a1.607,1.607,0,0,1-.106.457s-.013.027-.029.015a1.215,1.215,0,0,1-.239.6h0a1.884,1.884,0,0,0,.024.449.818.818,0,0,1,.108.04h0l.466.15.294.1a1.549,1.549,0,0,1,.86.7c.087.153.169.354.279.523l-.043.034a9.553,9.553,0,0,0,.669.884c.02.02.816.542,1.119.8a6.17,6.17,0,0,0,.814.532h.074c.131,0,.407-.092.5-.057a.681.681,0,0,1,.275.218c.026.061.214.35.175.394s-.087.053-.083.074.341.3.337.38S227.566,142.778,227.535,142.787Z" transform="translate(-214.737 -131.764)"/></g><g transform="translate(19.696 19.644)"><path class="c" d="M223.944,215.663a24.161,24.161,0,0,1-5.809,0c-1.441-.23-1.69-.845-1.786-1.882-.042-.456-.051-1.2-.048-1.895l-1.554-.4v7.328s0,.459.347.347a16.863,16.863,0,0,0,9.272-3.587C224.238,215.608,224.1,215.638,223.944,215.663Z" transform="translate(-214.744 -203.836)"/><path class="c" d="M229.986,186.177a1.313,1.313,0,0,0-.416-.046l-12.2-.008a.881.881,0,0,1,.081,1.386c-.053.053-.1.106-.144.159l-.046,1.514c-.436-.4-.441-.938.046-1.514l.047-1.545h-1.573a1.187,1.187,0,0,1,.214,1.666c-.04.056-.076.111-.11.166l.377,2.209a1.2,1.2,0,0,1,.3,1.733l-.3-1.733a1.927,1.927,0,0,0-.158-.113l.023.012c-.692-.441-.793-1.225-.242-2.108l-.313-1.832h-.132s-.148,0-.366,0c-.389-.03-.34.368-.34.368v6.525l1.562.4c.008-.536.02-.926.02-.926h9.42s.012.388.02.921l1.666-.429c.2-.05.377.657.182.707l-1.84.474c0,.694-.005,1.442-.048,1.9a4.175,4.175,0,0,1-.1.621,17.029,17.029,0,0,0,4.412-9.975S230.083,186.231,229.986,186.177Zm-3.094,6.06-9.35-1.533c.085-.52,2.058-.634,4.48-.277l.132-.28c-.282-.1-.468-.264-.443-.418.033-.2.4-.3.83-.234s.744.288.712.487c-.025.154-.254.251-.553.255l.036.308C225.144,190.979,226.977,191.717,226.892,192.237Z" transform="translate(-214.737 -186.122)"/></g><path class="d" d="M175.008,146.734l0-14.606s0-.459-.347-.346a16.907,16.907,0,0,0-9.19,3.519l.019.124a.393.393,0,0,1,.269.381.266.266,0,0,1-.078.159.3.3,0,0,1-.185.084.236.236,0,0,1-.27-.285l-.193-.094a16.818,16.818,0,0,0-5.321,10.845s-.046.482.051.537a1.31,1.31,0,0,0,.416.046l14.125.009s.148,0,.366,0C175.058,147.132,175.008,146.734,175.008,146.734Zm-6.61-13.052h0a.289.289,0,0,1,.279.343l-.006.613a.285.285,0,0,1-.085.309.27.27,0,0,1-.191.071h0a.273.273,0,0,1-.285-.281q0-.385,0-.772A.289.289,0,0,1,168.4,133.682Zm-5.578,4.485,0-.01a.3.3,0,0,1,.435-.168l.53.127c.273-.022.365.153.334.314a.3.3,0,0,1-.46.2l-.56-.112A.279.279,0,0,1,162.819,138.167Zm1.494,3.577-.589.293a.287.287,0,0,1-.431-.072.291.291,0,0,1-.037-.166c0-.147.1-.284.339-.259l.361-.2a.3.3,0,0,1,.512-.014l0,0A.281.281,0,0,1,164.314,141.744Zm2.548,2.185a.21.21,0,0,1,.195-.224l2.706,0a.226.226,0,0,1,0,.447l-2.706,0A.21.21,0,0,1,166.862,143.929Zm.2.4,2.706,0a.225.225,0,0,1,0,.446l-2.706,0a.225.225,0,0,1,0-.446Zm2.707,1.067h-.217c-.071.134-.231.433-.307.578a.424.424,0,0,1-.223.227,3.319,3.319,0,0,1-1.163,0c-.073-.021-.214-.211-.214-.211l-.292-.592h-.289a.226.226,0,0,1,0-.447l2.706,0a.226.226,0,0,1,0,.447Zm.17-2.2v.141a.215.215,0,0,1-.215.216h-.361v0H167.1a.215.215,0,0,1-.216-.215V143.2a.963.963,0,0,0-.443-.809,3.644,3.644,0,1,1,3.938-.006A.962.962,0,0,0,169.935,143.192Zm2.073-7.826-.48.594a.285.285,0,0,1-.385.02l-.021-.018a.309.309,0,0,1,.052-.461l.41-.526a.284.284,0,0,1,.416-.018l.006.005A.289.289,0,0,1,172.008,135.366Zm1.51,6.588a.286.286,0,0,1-.451.056l-.524-.263a.278.278,0,0,1-.205-.419l0,0a.3.3,0,0,1,.439-.075l.557.284a.257.257,0,0,1,.218.256A.292.292,0,0,1,173.518,141.954Zm.142-3.44-.5.11a.358.358,0,0,1-.23.053.246.246,0,0,1-.241-.207.069.069,0,0,0,0-.009.325.325,0,0,1,0-.152.246.246,0,0,1,.038-.087.251.251,0,0,1,.2-.117l.632-.126C174.006,137.78,174.2,138.539,173.66,138.514Z" transform="translate(-156.604 -128.515)"/><path class="d" d="M182.439,151.1c.043.233.082.436.119.639.02.109.025.218-.1.271a.458.458,0,0,1-.415,0c-.107-.057-.1-.153-.087-.271a4.81,4.81,0,0,0,.131-.984.279.279,0,0,1,.208-.3c.458-.19.915-.382,1.369-.582a.446.446,0,0,1,.384.01q.657.284,1.317.561c.13.055.239.118.242.281a.287.287,0,0,1-.249.3.521.521,0,0,0-.442.683c.047.26-.013.442-.347.434a.813.813,0,0,0-.547.225.228.228,0,0,1-.35.007,1,1,0,0,0-.658-.245c-.191-.006-.252-.1-.24-.272.007-.114-.013-.232,0-.344C182.822,151.257,182.7,151.139,182.439,151.1Zm.157-.365c.367.157.67.287.974.414.1.04.215.121.291.094.4-.145.8-.319,1.245-.506-.414-.183-.754-.331-1.092-.484a.36.36,0,0,0-.3-.011C183.361,150.392,183.015,150.548,182.6,150.733Zm1.966.848c.017-.231-.114-.179-.23-.112a.852.852,0,0,1-.942.013c-.063-.039-.193-.165-.239.018-.029.118-.055.263.156.293a2.033,2.033,0,0,1,.427.157,2.78,2.78,0,0,0,.812-.23A.561.561,0,0,0,184.562,151.582Z" transform="translate(-172.146 -141.13)"/><path class="b" d="M174.668,186.057c-.217,0-.366,0-.366,0l-14.125.009a1.3,1.3,0,0,0-.416.046c-.1.054-.051.536-.051.536s.621,13.3,14.949,14.733c.349.113.347-.347.347-.347l0-14.606S175.058,186.027,174.668,186.057Zm-4.34,9.256a1.854,1.854,0,0,1-1.466,1.793c-.046.01-.094.014-.158.023,0-.138,0-.264,0-.389,0-.025.039-.053.067-.07a.447.447,0,0,0,.233-.444.433.433,0,0,0-.274-.381.464.464,0,0,0-.587.209.447.447,0,0,0,.15.587.519.519,0,0,0,.356.087.469.469,0,0,1-.34.015v.4c-.081-.011-.151-.017-.22-.031a1.843,1.843,0,0,1-1.446-1.5c-.017-.1-.021-.209-.032-.313-.009-.075.022-.1.1-.1.408,0,.817,0,1.225,0,.12,0,.241-.005.36,0a.178.178,0,0,0,.2-.179c0-.107-.081-.178-.206-.178h-1.424c-.08,0-.19.023-.232-.019s-.019-.151-.021-.231,0-.169,0-.252.027-.1.1-.1c.345,0,.691,0,1.036,0,.18,0,.361,0,.541,0,.133,0,.207-.063.21-.171s-.077-.182-.209-.182H166.73c-.116,0-.116,0-.116-.12s0-.24,0-.36,0-.12.117-.12h1.577a.174.174,0,0,0,.174-.249.2.2,0,0,0-.2-.107q-.752,0-1.505,0c-.182,0-.16.03-.162-.163,0-.111,0-.223,0-.333,0-.082.028-.1.1-.1.493,0,.985,0,1.478,0a1.292,1.292,0,0,0,.153,0,.166.166,0,0,0,.152-.171.17.17,0,0,0-.142-.172.624.624,0,0,0-.116-.007c-.508,0-1.015,0-1.523,0-.085,0-.1-.027-.1-.107a1.864,1.864,0,0,1,1.459-1.8,1.859,1.859,0,0,1,2.254,1.793C170.332,193.018,170.331,194.165,170.328,195.313Zm2.525-.419a1.684,1.684,0,0,1-.759.2l-.077,0c0,.057,0,.113,0,.169s-.02.069-.07.069c-.153,0-.306,0-.46,0-.049,0-.073-.018-.069-.069,0-.024,0-.048,0-.072q0-1.825,0-3.649v-.122h.591l.014.207a1.526,1.526,0,0,1,.775.163,4.2,4.2,0,0,0-1.891-3.488,4.157,4.157,0,0,0-4.57-.191,4.219,4.219,0,0,0-2.181,3.67,1.551,1.551,0,0,1,.764-.152l.013-.208h.586c0,.036.006.07.006.1q0,1.847,0,3.694c0,.094-.029.117-.117.114-.155-.006-.311,0-.475,0l-.013-.224a4.4,4.4,0,0,1-.5-.084,1.629,1.629,0,0,1-1.159-1.151,1.731,1.731,0,0,1,.2-1.484.179.179,0,0,0,.022-.1,5.007,5.007,0,0,1,3.642-5.236,4.7,4.7,0,0,1,1.845-.157,4.929,4.929,0,0,1,3.874,2.56,4.391,4.391,0,0,1,.582,1.828c.028.331.015.665.024,1a.278.278,0,0,0,.037.132A1.768,1.768,0,0,1,172.854,194.893Z" transform="translate(-156.604 -166.43)"/><path class="b" d="M168.487,120.993a19.054,19.054,0,0,0-4.822,37.486l.262-.877a18.137,18.137,0,1,1,9.152-.009l.238.884a19.053,19.053,0,0,0-4.83-37.484Z" transform="translate(-149.436 -120.993)"/></g><g transform="translate(48.394 163.062)"><path class="b" d="M50.8,260.807c.039-.22.117-.337.22-.337s.181.065.35.4l3.536,7.2,3.523-7.292c.1-.207.168-.311.285-.311s.194.13.233.4l1.178,7.926c.117.816.246,1.191.635,1.308a2.6,2.6,0,0,0,.8.129c.116,0,.207.013.207.091,0,.1-.156.143-.337.143-.324,0-2.111-.026-2.629-.065-.3-.026-.376-.065-.376-.143s.052-.1.142-.142.116-.194.065-.557l-.777-5.634h-.052L54.986,269.7c-.3.609-.363.725-.479.725s-.246-.259-.453-.648c-.311-.6-1.334-2.577-1.489-2.94-.117-.272-.894-1.8-1.347-2.772h-.052l-.674,5.051a5.116,5.116,0,0,0-.039.609c0,.246.168.363.388.414a2.516,2.516,0,0,0,.544.065c.1,0,.194.026.194.091,0,.117-.117.143-.311.143-.544,0-1.127-.039-1.36-.039s-.867.039-1.282.039c-.13,0-.233-.026-.233-.143,0-.065.078-.091.207-.091a1.676,1.676,0,0,0,.388-.039c.363-.077.466-.583.531-1.023Z" transform="translate(-48.394 -260.47)"/><path class="b" d="M96.412,269.109c0-1.671,0-1.981-.013-2.331-.026-.376-.142-.5-.388-.583a1.454,1.454,0,0,0-.414-.052c-.117,0-.181-.026-.181-.129,0-.065.09-.091.272-.091.427,0,1.2.026,1.528.026.285,0,1.023-.026,1.463-.026.142,0,.233.026.233.091,0,.1-.065.129-.181.129a1.582,1.582,0,0,0-.337.039c-.311.052-.4.207-.427.6-.026.35-.026.661-.026,2.331v1.943c0,1.062,0,1.943.052,2.409.039.3.117.466.453.518a4.31,4.31,0,0,0,.583.039c.13,0,.182.065.182.117,0,.078-.091.117-.22.117-.751,0-1.528-.039-1.839-.039-.259,0-1.036.039-1.489.039-.142,0-.22-.039-.22-.117,0-.052.039-.117.182-.117a1.7,1.7,0,0,0,.4-.039c.233-.052.3-.207.337-.531.052-.453.052-1.334.052-2.4Z" transform="translate(-81.233 -264.278)"/><path class="b" d="M113.529,269.109c0-1.671,0-1.981-.013-2.331-.026-.376-.129-.492-.492-.6a2.094,2.094,0,0,0-.453-.039c-.117,0-.195-.039-.195-.116s.091-.1.259-.1c.6,0,1.321.026,1.645.026.35,0,1.166-.026,1.852-.026,1.425,0,3.341,0,4.585,1.256a3.856,3.856,0,0,1,1.075,2.8,4.27,4.27,0,0,1-1.243,3.07,5.315,5.315,0,0,1-3.82,1.295c-.414,0-.907-.039-1.36-.065s-.868-.065-1.152-.065c-.13,0-.376.013-.648.013s-.557.026-.79.026c-.143,0-.22-.039-.22-.117,0-.052.039-.117.181-.117a1.7,1.7,0,0,0,.4-.039c.233-.052.3-.259.337-.583.052-.466.052-1.334.052-2.344Zm1.528,1.217c0,1.166.013,2.008.026,2.228a2.006,2.006,0,0,0,.13.777c.142.207.6.44,1.489.44a3.592,3.592,0,0,0,2.487-.751,3.363,3.363,0,0,0,.971-2.733,3.582,3.582,0,0,0-1.062-2.745,4.6,4.6,0,0,0-3.186-1.049,2.426,2.426,0,0,0-.7.078.193.193,0,0,0-.142.22c-.013.375-.013,1.282-.013,2.15Z" transform="translate(-93.078 -264.278)"/><path class="b" d="M149.143,269.109c0-1.671,0-1.981-.013-2.331-.026-.376-.142-.5-.388-.583a1.454,1.454,0,0,0-.414-.052c-.117,0-.182-.026-.182-.129,0-.065.091-.091.272-.091.427,0,1.2.026,1.528.026.285,0,1.023-.026,1.463-.026.142,0,.233.026.233.091,0,.1-.065.129-.181.129a1.581,1.581,0,0,0-.337.039c-.311.052-.4.207-.427.6-.026.35-.026.661-.026,2.331v1.943c0,1.062,0,1.943.052,2.409.039.3.117.466.453.518a4.31,4.31,0,0,0,.583.039c.13,0,.181.065.181.117,0,.078-.09.117-.22.117-.751,0-1.528-.039-1.839-.039-.259,0-1.036.039-1.489.039-.142,0-.22-.039-.22-.117,0-.052.039-.117.181-.117a1.7,1.7,0,0,0,.4-.039c.233-.052.3-.207.337-.531.052-.453.052-1.334.052-2.4Z" transform="translate(-118.059 -264.278)"/><path class="b" d="M172.576,273.153c0,.3,0,.311-.142.389a6.865,6.865,0,0,1-2.785.492c-2.8,0-5.271-1.269-5.271-4.313a4.075,4.075,0,0,1,1.995-3.6,5.708,5.708,0,0,1,3.069-.712,12.978,12.978,0,0,1,2.021.181,9.088,9.088,0,0,0,.906.117c.13.013.156.052.156.129a14.916,14.916,0,0,0-.078,1.813c0,.169-.065.246-.155.246s-.1-.052-.117-.142a1.464,1.464,0,0,0-.388-.907,3.531,3.531,0,0,0-2.474-.842,2.943,2.943,0,0,0-3.251,3.328,3.821,3.821,0,0,0,3.963,4.093,1.864,1.864,0,0,0,.8-.117.364.364,0,0,0,.22-.388v-1.01c0-.544,0-.958-.013-1.3-.013-.376-.13-.492-.492-.6a2.048,2.048,0,0,0-.44-.039c-.1,0-.181-.052-.181-.116,0-.091.091-.1.246-.1.6,0,1.412.026,1.749.026.363,0,.958-.026,1.334-.026.155,0,.233.013.233.1a.132.132,0,0,1-.142.116,1.557,1.557,0,0,0-.311.039c-.311.052-.427.207-.44.6-.013.337-.013.777-.013,1.321Z" transform="translate(-129.395 -263.919)"/><path class="b" d="M199.814,269.109c0-1.671,0-1.981-.013-2.331-.026-.376-.143-.5-.389-.583a1.451,1.451,0,0,0-.414-.052c-.116,0-.181-.026-.181-.129,0-.065.091-.091.272-.091.427,0,1.2.026,1.528.026.285,0,1.023-.026,1.463-.026.142,0,.233.026.233.091,0,.1-.065.129-.181.129a1.582,1.582,0,0,0-.337.039c-.311.052-.4.207-.427.6-.026.35-.026.661-.026,2.331v1.943c0,1.062,0,1.943.052,2.409.039.3.117.466.453.518a4.309,4.309,0,0,0,.583.039c.13,0,.181.065.181.117,0,.078-.09.117-.22.117-.751,0-1.528-.039-1.839-.039-.259,0-1.036.039-1.489.039-.142,0-.22-.039-.22-.117,0-.052.039-.117.181-.117a1.692,1.692,0,0,0,.4-.039c.233-.052.3-.207.337-.531.052-.453.052-1.334.052-2.4Z" transform="translate(-153.447 -264.278)"/><path class="b" d="M213.753,267c-.143-.4-.233-.661-.4-.764a.928.928,0,0,0-.44-.091c-.117,0-.182-.039-.182-.116s.091-.1.259-.1c.583,0,1.217.026,1.321.026s.661-.026,1.321-.026c.169,0,.246.026.246.1s-.091.116-.208.116a.736.736,0,0,0-.285.052c-.1.039-.117.1-.117.22a6.34,6.34,0,0,0,.246,1.01c.194.725,1.231,4.054,1.4,4.559h.039l2.176-5.634c.117-.311.233-.4.337-.4.13,0,.233.169.376.518l2.28,5.439h.039c.22-.635,1.088-3.536,1.489-4.818a2.371,2.371,0,0,0,.117-.635c0-.181-.1-.311-.557-.311-.1,0-.194-.052-.194-.116s.09-.1.272-.1c.6,0,1.114.026,1.217.026.078,0,.57-.026.946-.026.129,0,.207.026.207.091s-.052.129-.155.129a1.483,1.483,0,0,0-.4.052c-.272.1-.4.518-.635,1.153-.531,1.386-1.7,4.882-2.253,6.527-.13.389-.195.518-.363.518s-.233-.129-.4-.531l-2.318-5.44H219.1c-.194.466-1.723,4.377-2.189,5.388-.207.453-.272.583-.44.583-.142,0-.207-.116-.311-.4Z" transform="translate(-163.163 -264.278)"/><path class="b" d="M256.487,269.721c0-1.878,1.321-4.313,4.779-4.313,2.875,0,4.662,1.593,4.662,4.118a4.449,4.449,0,0,1-4.779,4.507A4.3,4.3,0,0,1,256.487,269.721Zm7.745.207c0-2.435-1.464-3.937-3.3-3.937-1.269,0-2.759.674-2.759,3.393,0,2.266,1.3,4.054,3.445,4.054C262.419,273.438,264.232,273.062,264.232,269.928Z" transform="translate(-193.722 -263.919)"/><path class="b" d="M292.164,269.109c0-1.671,0-1.981-.013-2.331-.026-.376-.13-.492-.492-.6a2.1,2.1,0,0,0-.453-.039c-.117,0-.195-.039-.195-.116s.091-.1.259-.1c.6,0,1.321.026,1.554.026.388,0,1.425-.026,1.774-.026a3.99,3.99,0,0,1,2.163.466,1.923,1.923,0,0,1,.8,1.515c0,.816-.466,1.541-1.58,2.435,1.01,1.243,1.813,2.241,2.5,2.927a2.136,2.136,0,0,0,1.217.725,1.075,1.075,0,0,0,.272.026.132.132,0,0,1,.142.117c0,.091-.077.117-.22.117h-1.088a2.468,2.468,0,0,1-1.243-.22,5.161,5.161,0,0,1-1.554-1.619c-.453-.6-.932-1.334-1.075-1.5a.263.263,0,0,0-.208-.078l-1.023-.026a.082.082,0,0,0-.091.091v.155c0,1.023.013,1.878.065,2.344.039.324.091.531.44.583a4.37,4.37,0,0,0,.557.039.132.132,0,0,1,.142.117c0,.078-.091.117-.233.117-.661,0-1.606-.039-1.774-.039-.22,0-.946.039-1.4.039-.142,0-.22-.039-.22-.117,0-.052.039-.117.181-.117a1.69,1.69,0,0,0,.4-.039c.233-.052.3-.259.337-.583.052-.466.052-1.334.052-2.344Zm1.451.855c0,.117.026.155.1.194a3.12,3.12,0,0,0,.868.1,1.146,1.146,0,0,0,.8-.181,1.863,1.863,0,0,0,.738-1.632,1.73,1.73,0,0,0-1.736-1.955,4.118,4.118,0,0,0-.673.039c-.078.026-.1.065-.1.155Z" transform="translate(-217.833 -264.278)"/><path class="b" d="M323.33,271.052c0,1.412,0,2.111.246,2.318.195.168.635.233,1.516.233.608,0,1.049-.013,1.334-.311a1.325,1.325,0,0,0,.285-.66c.013-.1.039-.169.129-.169s.1.117.1.246a8.4,8.4,0,0,1-.168,1.269c-.078.246-.13.3-.725.3-.816,0-1.476-.013-2.046-.039s-1.049-.026-1.515-.026c-.13,0-.376.013-.648.013s-.556.026-.79.026c-.142,0-.22-.039-.22-.117,0-.052.039-.117.181-.117a1.691,1.691,0,0,0,.4-.039c.233-.052.3-.259.337-.583.052-.466.052-1.334.052-2.344v-1.943c0-1.671,0-1.981-.013-2.331-.026-.376-.13-.492-.492-.6a1.52,1.52,0,0,0-.375-.039c-.13,0-.195-.039-.195-.116s.078-.1.246-.1c.531,0,1.256.026,1.567.026.272,0,1.2-.026,1.645-.026.168,0,.246.026.246.1s-.065.116-.207.116a2.523,2.523,0,0,0-.44.039c-.311.052-.4.207-.427.6-.026.35-.026.661-.026,2.331Z" transform="translate(-238.586 -264.278)"/><path class="b" d="M345.325,269.109c0-1.671,0-1.981-.013-2.331-.026-.376-.13-.492-.492-.6a2.1,2.1,0,0,0-.453-.039c-.117,0-.195-.039-.195-.116s.091-.1.259-.1c.6,0,1.321.026,1.645.026.35,0,1.165-.026,1.852-.026,1.425,0,3.341,0,4.585,1.256a3.857,3.857,0,0,1,1.075,2.8,4.27,4.27,0,0,1-1.243,3.07,5.316,5.316,0,0,1-3.821,1.295c-.414,0-.907-.039-1.36-.065s-.868-.065-1.152-.065c-.13,0-.375.013-.648.013s-.557.026-.79.026c-.142,0-.22-.039-.22-.117,0-.052.039-.117.181-.117a1.694,1.694,0,0,0,.4-.039c.233-.052.3-.259.337-.583.052-.466.052-1.334.052-2.344Zm1.528,1.217c0,1.166.013,2.008.026,2.228a2.01,2.01,0,0,0,.129.777c.142.207.6.44,1.489.44a3.592,3.592,0,0,0,2.487-.751,3.362,3.362,0,0,0,.971-2.733,3.583,3.583,0,0,0-1.062-2.745,4.6,4.6,0,0,0-3.186-1.049,2.427,2.427,0,0,0-.7.078.194.194,0,0,0-.142.22c-.013.375-.013,1.282-.013,2.15Z" transform="translate(-254.96 -264.278)"/><path class="b" d="M267,275.45v-1.485a.3.3,0,0,1,.445-.257l1.286.743,1.286.743a.3.3,0,0,1,0,.514l-1.286.742-1.286.743a.3.3,0,0,1-.445-.257Z" transform="translate(-201.063 -269.687)"/></g></g></svg>