<svg xmlns="http://www.w3.org/2000/svg" width="23.024" height="22.252" viewBox="0 0 23.024 22.252"><defs><style>.a{fill:#03579c;}</style></defs><g transform="translate(0 0)"><path class="a" d="M12.043,51.507a3.582,3.582,0,0,0-2.393.909L2.535,58.782A6.028,6.028,0,0,0,.529,63.271v7.156a3.346,3.346,0,0,0,3.324,3.333H8.586V68a3.455,3.455,0,1,1,6.91,0v5.755H20.23a3.346,3.346,0,0,0,3.324-3.333V63.271a6.028,6.028,0,0,0-2.006-4.489l-7.113-6.366A3.582,3.582,0,0,0,12.043,51.507Z" transform="translate(-0.529 -51.507)"/></g></svg>