<svg xmlns="http://www.w3.org/2000/svg" width="38" height="38" viewBox="0 0 38 38"><defs><style>.a{fill:#dfdfdf;}.b{fill:#1c1a1a;}</style></defs><g transform="translate(0.051 0.398)"><circle class="a" cx="19" cy="19" r="19" transform="translate(-0.051 -0.398)"/><g transform="translate(11.902 11.943)"><path class="b" d="M14.911,4.263A5.3,5.3,0,0,0,14.574,2.5,3.715,3.715,0,0,0,12.452.382,5.312,5.312,0,0,0,10.693.045C9.916.009,9.67,0,7.7,0S5.486.009,4.713.042A5.3,5.3,0,0,0,2.953.38a3.538,3.538,0,0,0-1.286.839A3.57,3.57,0,0,0,.832,2.5,5.313,5.313,0,0,0,.495,4.261C.458,5.037.449,5.283.449,7.252s.009,2.215.042,2.989A5.3,5.3,0,0,0,.829,12a3.714,3.714,0,0,0,2.122,2.122,5.313,5.313,0,0,0,1.759.337c.773.034,1.02.042,2.989.042s2.215-.008,2.989-.042a5.3,5.3,0,0,0,1.759-.337A3.709,3.709,0,0,0,14.568,12a5.317,5.317,0,0,0,.337-1.759c.034-.773.042-1.02.042-2.989S14.945,5.037,14.911,4.263ZM13.6,10.184a3.975,3.975,0,0,1-.249,1.346,2.4,2.4,0,0,1-1.377,1.377,3.989,3.989,0,0,1-1.346.249c-.765.034-.994.042-2.929.042s-2.167-.008-2.929-.042a3.973,3.973,0,0,1-1.346-.249,2.231,2.231,0,0,1-.833-.541,2.254,2.254,0,0,1-.541-.833,3.989,3.989,0,0,1-.249-1.346c-.034-.765-.042-.994-.042-2.929s.008-2.167.042-2.929a3.973,3.973,0,0,1,.249-1.346A2.2,2.2,0,0,1,2.6,2.15a2.251,2.251,0,0,1,.833-.541A3.991,3.991,0,0,1,4.778,1.36c.765-.034.994-.042,2.929-.042s2.167.009,2.929.042a3.975,3.975,0,0,1,1.346.249,2.23,2.23,0,0,1,.833.541,2.254,2.254,0,0,1,.541.833A3.991,3.991,0,0,1,13.6,4.329c.034.765.042.994.042,2.929S13.639,9.419,13.6,10.184Zm0,0" transform="translate(-0.449 0)"/><path class="b" d="M128.674,124.5a3.725,3.725,0,1,0,3.725,3.725A3.726,3.726,0,0,0,128.674,124.5Zm0,6.142a2.416,2.416,0,1,1,2.416-2.416A2.417,2.417,0,0,1,128.674,130.642Zm0,0" transform="translate(-121.422 -120.973)"/><path class="b" d="M364.189,89.471a.87.87,0,1,1-.87-.87A.87.87,0,0,1,364.189,89.471Zm0,0" transform="translate(-352.194 -86.092)"/></g></g></svg>