<svg xmlns="http://www.w3.org/2000/svg" width="21" height="21.529" viewBox="0 0 21 21.529"><defs><style>.a{fill:none;stroke:#2c516c;}</style></defs><g transform="translate(-1003.682 -24.225)"><g transform="translate(1003.849 24.486)"><g transform="translate(0 0)"><path class="a" d="M3,0H17a3,3,0,0,1,3,3V14a3,3,0,0,1-3,3H3a3,3,0,0,1-3-3V3A3,3,0,0,1,3,0Z" transform="translate(0.332 0.239)"/><g transform="translate(5.648 17.75)"><path class="a" d="M17.892,26.272h-.567V24.688H12.271v1.584h-.566a1.434,1.434,0,0,0-1.433,1.433h9.053A1.434,1.434,0,0,0,17.892,26.272Z" transform="translate(-10.272 -24.688)"/></g></g></g><path class="a" d="M4.714.529A2.184,2.184,0,0,0,2.621,2.783,2.183,2.183,0,0,0,4.714,5.036a2.186,2.186,0,0,0,2.1-2.253A2.186,2.186,0,0,0,4.714.529ZM1.784,5.938A1.314,1.314,0,0,0,.53,7.292v.9A1.312,1.312,0,0,0,1.784,9.546H7.647A1.312,1.312,0,0,0,8.9,8.194v-.9A1.314,1.314,0,0,0,7.647,5.938Z" transform="translate(1009.186 27.46)"/></g></svg>