<svg xmlns="http://www.w3.org/2000/svg" width="37" height="38" viewBox="0 0 37 38"><defs><style>.a{fill:#dfdfdf;}.b{fill:#1c1a1a;}</style></defs><g transform="translate(-0.296 0.398)"><ellipse class="a" cx="18.5" cy="19" rx="18.5" ry="19" transform="translate(0.296 -0.398)"/><g transform="translate(11.368 11.368)"><path class="b" d="M17.667,17.3h0v-5.21c0-2.549-.549-4.513-3.529-4.513a3.094,3.094,0,0,0-2.786,1.531h-.041V7.812H8.489V17.3h2.942V12.6c0-1.237.234-2.432,1.766-2.432,1.509,0,1.531,1.411,1.531,2.512V17.3Z" transform="translate(-3.464 -3.09)"/><path class="b" d="M.4,7.977H3.342v9.485H.4Z" transform="translate(-0.162 -3.255)"/><path class="b" d="M1.706,0A1.714,1.714,0,1,0,3.412,1.706,1.707,1.707,0,0,0,1.706,0Z"/></g></g></svg>