<svg xmlns="http://www.w3.org/2000/svg" width="183.408" height="97.041" viewBox="0 0 183.408 97.041">
    <defs>
        <style>
            .cls-1{fill:#fff}
        </style>
    </defs>
    <g id="Group_18029" transform="translate(-48.395 -120.993)">
        <g id="Group_14896" transform="translate(105.067 120.993)">
            <g id="Group_14893" transform="translate(28.849 68.18)">
                <path id="Path_66810" d="M202.12 245.125a1.287 1.287 0 0 1 .066-2.573 1.3 1.3 0 0 1 1.259 1.288 1.287 1.287 0 0 1-1.325 1.285z" class="cls-1" transform="translate(-200.87 -242.55)"/>
                <path id="Path_66811" d="M222.312 243.815a1.281 1.281 0 0 1-1.3 1.309 1.266 1.266 0 0 1-1.272-1.259 1.285 1.285 0 0 1 1.222-1.314 1.3 1.3 0 0 1 1.35 1.264z" class="cls-1" transform="translate(-209.155 -242.55)"/>
                <path id="Path_66812" d="M211.616 243.4a1.288 1.288 0 1 1-1.311 1.222 1.3 1.3 0 0 1 1.311-1.222z" class="cls-1" transform="translate(-205.012 -242.922)"/>
            </g>
            <g id="Group_14894" transform="translate(36.627 6.041)">
                <path id="Path_66813" d="M218.518 166.393a2.949 2.949 0 0 0-.126.4c.008.041.142-.036.244-.122s.378-.329.342-.39-.371.019-.46.112z" class="cls-1" transform="translate(-216.342 -146.911)"/>
                <path id="Path_66814" d="M255.346 165.62c-.036.061.24.3.342.39s.236.163.244.122a2.919 2.919 0 0 0-.126-.4c-.089-.088-.423-.173-.46-.112z" class="cls-1" transform="translate(-232.568 -146.621)"/>
                <path id="Path_66815" d="M243.189 159.194s-1.156-24.725-27.8-27.4c-.649-.21-.645.644-.645.644V159.6s-.093.74.632.685c.4.007.68.007.68.007l26.267-.017a2.44 2.44 0 0 0 .774-.085c.177-.099.092-.996.092-.996zm-4.653-6.933s.067.187-.185.126a1.644 1.644 0 0 1-.386-.138s-.045.21-.338.025a5.02 5.02 0 0 1-.97-.744c-.052-.109-.305-.389-.417-.553a.043.043 0 0 1-.047 0s-3.533-1.489-3.806-1.766-.578-.86-.772-1.036c-.109-.1-.558-.581-.931-.985l-.12-.13-.035-.038-.064-.07-.32-.349s-.238.672-.329 1.034a10.167 10.167 0 0 0-.177 1.408v.182a.773.773 0 0 0 .013.079c.012.058.03.127.053.2s.049.161.079.248c.146.435.349.939.349.939.14.082.285.176.438.285 0 0 .607.178.815.234a.232.232 0 0 0 .07 0c.415-.031 2.2-.571 2.844-.571.694 0 .916-.042 1.165.083a2.5 2.5 0 0 1 .721 1.388 11.191 11.191 0 0 1-2.136 1.762 3.728 3.728 0 0 1-.935.444c-.339.089-1.317.373-2.435.7l-.413.122c.137.021.285.05.413.063a14.024 14.024 0 0 1 2.136.222c.4.153.874.749.583 1.027s-1.012.166-1.373.1-2.123-.125-2.345-.195a3.6 3.6 0 0 1-.929-.361.97.97 0 0 0-.155-.068l-.44.317-.305-.1-.476-.151-1.172.349a.764.764 0 0 0-.059-.181c-.223.089-.451.146-.6.191-.222.07-1.984.125-2.344.195s-1.082.18-1.373-.1.18-.874.583-1.027a14.023 14.023 0 0 1 2.136-.222c.072-.007.152-.02.232-.034l-2.75-.876a2.188 2.188 0 0 1-.852-.422c-.319-.278-2.095-1.471-2.136-1.762a2.5 2.5 0 0 1 .721-1.388c.25-.125.472-.083 1.166-.083s2.705.624 2.913.569a3.05 3.05 0 0 0 .476-.227l.228-.127c.116-.269.191-.45.244-.591l.027-.076c.021-.061.039-.114.052-.162a1.92 1.92 0 0 0 .056-.334 2.619 2.619 0 0 0 .022-.45 3.183 3.183 0 0 0-.1-.613c-.035-.142-.091-.316-.157-.5-.211-.587-.518-1.26-.518-1.26s-1.406 1.558-1.526 1.743a2.852 2.852 0 0 1-.915.855c-.435.231-3.064 1.841-3.064 1.841-.1.159-.379.463-.434.578a4.023 4.023 0 0 1-1.019.775c-.31.153-.289-.056-.289-.056a1.607 1.607 0 0 1-.415.136c-.255.047-.156-.123-.156-.123-.057-.016-.463.2-.472.041s.618-.667.626-.707-.081-.057-.154-.139.276-.618.325-.731a1.267 1.267 0 0 1 .512-.407c.171-.065.683.106.927.106h.211c.148-.111 2.251-2.382 2.68-2.608a4.786 4.786 0 0 0 1.335-1.366l-.112-.09c.228-.318.441-.665.5-.731.139-.166.9-1.457 1.306-1.66.329-.164 1.744-.648 2.275-.828a.892.892 0 0 1 .093-.034 8.458 8.458 0 0 0 .136-.852 2.471 2.471 0 0 1-.453-1.158c-.034.031-.058-.027-.058-.027a2.911 2.911 0 0 1-.182-.853c.026-.071.07-.073.11-.057a6.178 6.178 0 0 1-.091-1.108c.056-.159.236-1.114 2.161-.547 0 0 .6-.127.721.287a4.68 4.68 0 0 1-.077 1.405c.044-.026.1-.037.129.048a2.988 2.988 0 0 1-.2.85s-.024.05-.054.027a2.26 2.26 0 0 1-.445 1.107 3.5 3.5 0 0 0 .045.835 1.524 1.524 0 0 1 .2.075l.867.279.546.179a2.88 2.88 0 0 1 1.6 1.305c.163.284.315.658.519.973l-.08.064a17.768 17.768 0 0 0 1.244 1.644c.037.037 1.517 1.008 2.081 1.48a11.474 11.474 0 0 0 1.514.989h.137c.244 0 .756-.171.927-.105a1.266 1.266 0 0 1 .512.406c.049.114.4.651.325.732s-.163.1-.154.138.634.553.626.707-.418-.035-.475-.019z" class="cls-1" transform="translate(-214.737 -131.764)"/>
            </g>
            <g id="Group_14895" transform="translate(36.627 36.53)">
                <path id="Path_66816" d="M231.849 219.253a44.928 44.928 0 0 1-10.8 0c-2.679-.429-3.143-1.572-3.322-3.5-.079-.848-.095-2.236-.089-3.524l-2.889-.744v13.627s0 .854.645.644c7.665-.769 13.217-3.364 17.242-6.669-.236.064-.498.12-.787.166z" class="cls-1" transform="translate(-214.741 -197.26)"/>
                <path id="Path_66817" d="M243.093 186.224a2.443 2.443 0 0 0-.774-.085l-22.679-.015a1.638 1.638 0 0 1 .151 2.578c-.1.1-.186.2-.269.3l-.086 2.815c-.811-.739-.819-1.744.086-2.815l.087-2.873h-2.924a2.208 2.208 0 0 1 .4 3.1c-.074.1-.141.206-.2.309l.7 4.107a2.233 2.233 0 0 1 .55 3.223l-.55-3.223a3.579 3.579 0 0 0-.293-.21l.043.022c-1.287-.821-1.474-2.279-.45-3.919l-.582-3.407h-.246s-.275 0-.68.007c-.724-.056-.632.685-.632.685v12.134l2.9.748c.016-1 .038-1.722.038-1.722H235.2s.022.721.038 1.713l3.1-.8c.363-.093.7 1.221.338 1.314l-3.422.881c.006 1.291-.01 2.682-.089 3.532a7.765 7.765 0 0 1-.181 1.155 31.668 31.668 0 0 0 8.2-18.549s.09-.903-.091-1.005zm-5.753 11.27l-17.386-2.852c.159-.968 3.828-1.18 8.33-.515l.246-.522c-.525-.185-.871-.491-.824-.778.061-.37.752-.565 1.544-.435s1.384.535 1.323.906c-.047.287-.473.466-1.029.473l.067.573c4.479.809 7.889 2.182 7.729 3.15z" class="cls-1" transform="translate(-214.737 -186.122)"/>
            </g>
            <path id="Path_66818" d="M188.167 159.6v-27.162s0-.854-.645-.644c-7.568.759-13.077 3.3-17.09 6.544l.036.231a.731.731 0 0 1 .5.709.494.494 0 0 1-.145.3.565.565 0 0 1-.344.155.438.438 0 0 1-.5-.53l-.358-.175c-9.333 8.183-9.9 20.167-9.9 20.167s-.085.9.1 1a2.436 2.436 0 0 0 .773.085l26.267.017s.275 0 .68-.007c.719.053.626-.69.626-.69zm-12.292-24.272h.008a.537.537 0 0 1 .518.638l-.011 1.14a.53.53 0 0 1-.158.575.5.5 0 0 1-.355.132h-.007a.508.508 0 0 1-.529-.522v-1.435a.538.538 0 0 1 .534-.525zm-10.373 8.34v-.018a.548.548 0 0 1 .808-.312l.985.236c.507-.04.678.285.622.584a.55.55 0 0 1-.856.379l-1.042-.208a.519.519 0 0 1-.519-.658zm2.779 6.652l-1.095.545a.533.533 0 0 1-.8-.134.541.541 0 0 1-.07-.308c.008-.273.2-.527.63-.482l.671-.367a.558.558 0 0 1 .952-.027v.007a.522.522 0 0 1-.289.769zm4.738 4.064a.391.391 0 0 1 .362-.416l5.031-.008a.42.42 0 0 1 0 .831l-5.031.007a.391.391 0 0 1-.362-.411zm.363.744l5.031-.007a.419.419 0 0 1 0 .83l-5.031.008a.419.419 0 0 1 0-.83zm5.035 1.984h-.4c-.133.249-.429.8-.57 1.075a.788.788 0 0 1-.416.422 6.171 6.171 0 0 1-2.162 0c-.136-.038-.4-.393-.4-.393l-.543-1.1h-.538a.42.42 0 0 1 0-.832l5.032-.007a.42.42 0 0 1 0 .832zm.317-4.1v.263a.4.4 0 0 1-.4.4h-.671v.006h-4.2a.4.4 0 0 1-.4-.4v-.263a1.791 1.791 0 0 0-.824-1.5 6.777 6.777 0 1 1 7.322-.011 1.789 1.789 0 0 0-.828 1.509zm3.856-14.553l-.894 1.1a.53.53 0 0 1-.716.038.464.464 0 0 1-.039-.034.574.574 0 0 1 .1-.858l.762-.978a.529.529 0 0 1 .774-.034l.011.01a.537.537 0 0 1 .001.76zm2.807 12.25a.531.531 0 0 1-.839.1l-.974-.489a.517.517 0 0 1-.381-.779v-.007a.549.549 0 0 1 .817-.139l1.035.529a.478.478 0 0 1 .406.477.542.542 0 0 1-.061.312zm.264-6.4l-.936.2a.666.666 0 0 1-.428.1.458.458 0 0 1-.449-.384.126.126 0 0 0 0-.017.606.606 0 0 1 .009-.283.457.457 0 0 1 .07-.162.468.468 0 0 1 .366-.218l1.174-.234c.833-.359 1.204 1.051.193 1.005z" class="cls-1" transform="translate(-153.943 -125.723)"/>
            <path id="Path_66819" d="M182.856 152.191l.222 1.189c.037.2.046.405-.177.5a.852.852 0 0 1-.772-.008c-.2-.107-.186-.285-.163-.5a8.949 8.949 0 0 0 .243-1.829.519.519 0 0 1 .388-.563c.851-.354 1.7-.71 2.546-1.082a.83.83 0 0 1 .715.019q1.222.527 2.449 1.044c.242.1.444.219.45.523a.535.535 0 0 1-.463.566.969.969 0 0 0-.823 1.269c.088.484-.025.822-.646.807a1.512 1.512 0 0 0-1.016.418.423.423 0 0 1-.652.012 1.852 1.852 0 0 0-1.223-.456c-.354-.011-.468-.179-.447-.505.014-.213-.025-.431.008-.639.073-.47-.15-.69-.639-.765zm.292-.679c.683.291 1.245.535 1.811.77.178.074.4.225.541.174.749-.27 1.479-.594 2.315-.941-.769-.34-1.4-.615-2.03-.9a.67.67 0 0 0-.565-.02c-.649.282-1.293.572-2.072.917zm3.656 1.578c.031-.43-.211-.333-.428-.208a1.584 1.584 0 0 1-1.752.025c-.117-.072-.36-.307-.444.034-.054.22-.1.489.29.546a3.782 3.782 0 0 1 .794.292 5.171 5.171 0 0 0 1.51-.428 1.043 1.043 0 0 0 .026-.261z" class="cls-1" transform="translate(-163.715 -133.654)"/>
            <path id="Path_66820" d="M187.535 186.06c-.4-.007-.68-.007-.68-.007l-26.267.017a2.424 2.424 0 0 0-.773.086c-.181.1-.1 1-.1 1s1.155 24.725 27.8 27.4c.649.209.645-.644.645-.644V186.75s.1-.75-.625-.69zm-8.07 17.213a3.447 3.447 0 0 1-2.725 3.333c-.086.018-.175.026-.293.043 0-.257-.007-.491.006-.723 0-.046.073-.1.124-.131a.83.83 0 0 0 .433-.825.805.805 0 0 0-.51-.708.862.862 0 0 0-1.092.388.831.831 0 0 0 .278 1.091.966.966 0 0 0 .661.161.872.872 0 0 1-.633.028v.736c-.151-.021-.281-.032-.408-.057a3.427 3.427 0 0 1-2.688-2.783c-.031-.192-.038-.388-.06-.582-.016-.139.041-.182.179-.182.759.006 1.519 0 2.279 0 .223 0 .448-.01.67 0a.331.331 0 0 0 .375-.333c0-.2-.15-.33-.383-.331h-2.648c-.149 0-.353.043-.432-.035s-.036-.282-.04-.43.007-.313 0-.469.05-.181.185-.179c.642.005 1.284 0 1.927 0h1.006c.247 0 .385-.117.39-.318s-.143-.339-.389-.339h-2.9c-.215 0-.216 0-.216-.223v-.67c0-.224 0-.224.217-.224h2.933a.323.323 0 0 0 .324-.463.367.367 0 0 0-.375-.2h-2.8c-.339 0-.3.055-.3-.3 0-.206.009-.414 0-.62-.009-.153.052-.19.193-.189h2.748a2.4 2.4 0 0 0 .284-.009.309.309 0 0 0 .282-.319.316.316 0 0 0-.264-.319 1.16 1.16 0 0 0-.217-.013h-2.832c-.158 0-.2-.049-.2-.2a3.466 3.466 0 0 1 2.713-3.346 3.457 3.457 0 0 1 4.191 3.334c.015 2.138.012 4.272.007 6.405zm4.7-.78a3.132 3.132 0 0 1-1.412.363l-.144.009v.315c0 .104-.036.129-.131.128h-.855c-.092 0-.135-.034-.128-.128v-.134-7.013h1.1l.026.384a2.838 2.838 0 0 1 1.441.3 7.815 7.815 0 0 0-3.517-6.487 7.731 7.731 0 0 0-8.5-.355 7.846 7.846 0 0 0-4.056 6.824 2.884 2.884 0 0 1 1.42-.283l.024-.386h1.089c0 .066.011.131.011.2v6.87c0 .176-.053.218-.218.211-.289-.012-.579 0-.884 0l-.024-.416a8.191 8.191 0 0 1-.926-.157 3.03 3.03 0 0 1-2.156-2.141 3.219 3.219 0 0 1 .379-2.76.333.333 0 0 0 .04-.19 9.311 9.311 0 0 1 6.773-9.736 8.735 8.735 0 0 1 3.431-.291 9.166 9.166 0 0 1 7.2 4.76 8.167 8.167 0 0 1 1.082 3.4c.053.615.029 1.236.045 1.854a.516.516 0 0 0 .07.246 3.288 3.288 0 0 1-1.184 4.613z" class="cls-1" transform="translate(-153.943 -149.562)"/>
            <path id="Path_66821" d="M184.863 120.993A35.432 35.432 0 0 0 175.9 190.7l.488-1.631a33.727 33.727 0 1 1 17.018-.016l.443 1.643a35.432 35.432 0 0 0-8.982-69.705z" class="cls-1" transform="translate(-149.436 -120.993)"/>
        </g>
        <g id="Group_14898" transform="translate(48.394 199.224)">
            <g id="Group_14897">
                <path id="Path_66822" d="M52.873 261.1c.072-.409.217-.626.409-.626s.337.121.651.747l6.575 13.391 6.551-13.56c.192-.385.313-.578.529-.578s.361.241.434.747l2.191 14.74c.217 1.517.458 2.216 1.18 2.433a4.835 4.835 0 0 0 1.494.24c.216 0 .385.024.385.169 0 .193-.289.265-.627.265-.6 0-3.926-.048-4.889-.121-.554-.048-.7-.121-.7-.265 0-.121.1-.192.265-.265.145-.048.217-.361.121-1.035L66 266.9h-.1l-5.25 10.741c-.554 1.132-.674 1.349-.891 1.349s-.458-.482-.843-1.2c-.578-1.108-2.481-4.793-2.77-5.467-.217-.506-1.662-3.348-2.5-5.154h-.1l-1.246 9.389a9.513 9.513 0 0 0-.072 1.132c0 .458.313.675.722.771a4.679 4.679 0 0 0 1.012.12c.192 0 .361.048.361.169 0 .217-.217.265-.578.265-1.011 0-2.1-.072-2.529-.072-.457 0-1.613.072-2.384.072-.241 0-.434-.048-.434-.265 0-.121.144-.169.385-.169a3.117 3.117 0 0 0 .722-.072c.674-.144.867-1.084.987-1.9z" class="cls-1" transform="translate(-48.394 -260.47)"/>
                <path id="Path_66823" d="M97.269 271.848c0-3.107 0-3.684-.024-4.335-.048-.7-.265-.939-.722-1.084a2.7 2.7 0 0 0-.771-.1c-.217 0-.337-.048-.337-.241 0-.121.168-.169.505-.169.795 0 2.24.048 2.842.048.53 0 1.9-.048 2.721-.048.265 0 .434.048.434.169 0 .193-.121.241-.337.241a2.935 2.935 0 0 0-.627.072c-.578.1-.747.385-.794 1.108-.048.651-.048 1.228-.048 4.335v3.613c0 1.975 0 3.613.1 4.48.072.554.217.867.843.963a8 8 0 0 0 1.084.072c.241 0 .338.121.338.217 0 .145-.169.217-.409.217-1.4 0-2.842-.072-3.42-.072-.481 0-1.927.072-2.77.072-.265 0-.409-.072-.409-.217 0-.1.072-.217.338-.217a3.15 3.15 0 0 0 .747-.072c.434-.1.554-.385.626-.987.1-.843.1-2.481.1-4.456z" class="cls-1" transform="translate(-69.041 -262.864)"/>
                <path id="Path_66824" d="M114.52 271.848c0-3.107 0-3.684-.024-4.335-.048-.7-.241-.915-.915-1.108a3.886 3.886 0 0 0-.842-.072c-.217 0-.362-.072-.362-.217s.169-.193.482-.193c1.108 0 2.457.048 3.059.048.651 0 2.168-.048 3.444-.048 2.65 0 6.214 0 8.526 2.336a7.17 7.17 0 0 1 2 5.2 7.94 7.94 0 0 1-2.312 5.708c-.963.963-3.2 2.408-7.1 2.408-.771 0-1.686-.072-2.529-.12-.843-.072-1.614-.121-2.143-.121-.241 0-.7.024-1.2.024-.506.024-1.036.048-1.469.048-.265 0-.409-.072-.409-.217 0-.1.072-.217.337-.217a3.151 3.151 0 0 0 .747-.072c.434-.1.554-.482.626-1.084.1-.867.1-2.481.1-4.359zm2.842 2.264c0 2.168.024 3.733.048 4.143a3.73 3.73 0 0 0 .241 1.445c.265.385 1.108.819 2.77.819a6.68 6.68 0 0 0 4.624-1.4c1.373-1.133 1.806-2.963 1.806-5.082a6.661 6.661 0 0 0-1.975-5.105 8.547 8.547 0 0 0-5.925-1.951 4.513 4.513 0 0 0-1.3.144.359.359 0 0 0-.265.409c-.024.7-.024 2.384-.024 4z" class="cls-1" transform="translate(-76.489 -262.864)"/>
                <path id="Path_66825" d="M150 271.848c0-3.107 0-3.684-.024-4.335-.048-.7-.265-.939-.722-1.084a2.7 2.7 0 0 0-.771-.1c-.217 0-.338-.048-.338-.241 0-.121.169-.169.506-.169.795 0 2.24.048 2.842.048.53 0 1.9-.048 2.721-.048.265 0 .434.048.434.169 0 .193-.121.241-.337.241a2.934 2.934 0 0 0-.626.072c-.578.1-.747.385-.795 1.108-.048.651-.048 1.228-.048 4.335v3.613c0 1.975 0 3.613.1 4.48.072.554.217.867.843.963a8.005 8.005 0 0 0 1.084.072c.241 0 .337.121.337.217 0 .145-.168.217-.409.217-1.4 0-2.842-.072-3.42-.072-.481 0-1.927.072-2.77.072-.265 0-.409-.072-.409-.217 0-.1.072-.217.337-.217a3.153 3.153 0 0 0 .747-.072c.434-.1.554-.385.626-.987.1-.843.1-2.481.1-4.456z" class="cls-1" transform="translate(-92.196 -262.864)"/>
                <path id="Path_66826" d="M179.623 279.81c0 .554 0 .578-.265.723a12.766 12.766 0 0 1-5.178.915c-5.2 0-9.8-2.36-9.8-8.02a7.577 7.577 0 0 1 3.709-6.7 10.616 10.616 0 0 1 5.708-1.325 24.135 24.135 0 0 1 3.757.337 16.889 16.889 0 0 0 1.686.217c.241.024.289.1.289.241a27.734 27.734 0 0 0-.145 3.371c0 .313-.121.458-.289.458-.145 0-.193-.1-.217-.265a2.723 2.723 0 0 0-.722-1.686 6.567 6.567 0 0 0-4.6-1.565 5.945 5.945 0 0 0-4.094 1.2c-1.18.964-1.951 2.481-1.951 4.985 0 4.408 2.842 7.611 7.37 7.611a3.466 3.466 0 0 0 1.493-.217.676.676 0 0 0 .409-.722V277.5c0-1.011 0-1.782-.024-2.408-.024-.7-.241-.915-.915-1.108a3.808 3.808 0 0 0-.819-.072c-.192 0-.337-.1-.337-.216 0-.169.169-.193.458-.193 1.108 0 2.625.048 3.251.048.674 0 1.782-.048 2.48-.048.289 0 .434.024.434.193a.245.245 0 0 1-.265.216 2.894 2.894 0 0 0-.578.072c-.578.1-.795.385-.819 1.108-.024.627-.024 1.445-.024 2.457z" class="cls-1" transform="translate(-99.324 -262.638)"/>
                <path id="Path_66827" d="M200.672 271.848c0-3.107 0-3.684-.024-4.335-.048-.7-.265-.939-.723-1.084a2.7 2.7 0 0 0-.771-.1c-.216 0-.337-.048-.337-.241 0-.121.169-.169.506-.169.795 0 2.24.048 2.842.048.529 0 1.9-.048 2.721-.048.265 0 .434.048.434.169 0 .193-.121.241-.337.241a2.935 2.935 0 0 0-.626.072c-.578.1-.747.385-.795 1.108-.048.651-.048 1.228-.048 4.335v3.613c0 1.975 0 3.613.1 4.48.072.554.217.867.843.963a8 8 0 0 0 1.084.072c.241 0 .337.121.337.217 0 .145-.168.217-.409.217-1.4 0-2.841-.072-3.42-.072-.482 0-1.927.072-2.77.072-.265 0-.409-.072-.409-.217 0-.1.072-.217.337-.217a3.144 3.144 0 0 0 .747-.072c.434-.1.554-.385.627-.987.1-.843.1-2.481.1-4.456z" class="cls-1" transform="translate(-114.446 -262.864)"/>
                <path id="Path_66828" d="M214.633 267.922c-.265-.747-.434-1.228-.747-1.421a1.726 1.726 0 0 0-.819-.169c-.217 0-.338-.072-.338-.217s.169-.193.482-.193c1.084 0 2.264.048 2.457.048s1.228-.048 2.456-.048c.314 0 .458.048.458.193s-.169.217-.386.217a1.369 1.369 0 0 0-.529.1c-.193.072-.217.192-.217.409a11.789 11.789 0 0 0 .458 1.878c.361 1.349 2.288 7.538 2.6 8.477h.072l4.046-10.476c.217-.578.434-.747.626-.747.241 0 .434.314.7.964l4.239 10.115h.072c.409-1.18 2.023-6.575 2.769-8.959a4.409 4.409 0 0 0 .217-1.18c0-.337-.193-.578-1.036-.578-.192 0-.361-.1-.361-.217 0-.145.168-.193.505-.193 1.108 0 2.071.048 2.264.048.145 0 1.06-.048 1.758-.048.241 0 .385.048.385.169 0 .145-.1.241-.289.241a2.757 2.757 0 0 0-.747.1c-.506.192-.746.963-1.181 2.144-.987 2.577-3.155 9.079-4.19 12.138-.241.723-.362.963-.675.963-.289 0-.434-.24-.747-.987l-4.31-10.116h-.048c-.361.867-3.2 8.14-4.07 10.019-.385.843-.505 1.084-.819 1.084-.265 0-.385-.216-.578-.747z" class="cls-1" transform="translate(-120.556 -262.864)"/>
                <path id="Path_66829" d="M256.487 273.428c0-3.493 2.457-8.02 8.887-8.02 5.346 0 8.67 2.963 8.67 7.658s-3.42 8.381-8.887 8.381c-6.165.001-8.67-4.383-8.67-8.019zm14.4.385c0-4.527-2.722-7.321-6.142-7.321-2.36 0-5.13 1.253-5.13 6.31 0 4.215 2.409 7.538 6.406 7.538 1.496 0 4.869-.698 4.869-6.527z" class="cls-1" transform="translate(-139.77 -262.638)"/>
                <path id="Path_66830" d="M293.155 271.848c0-3.107 0-3.684-.024-4.335-.048-.7-.241-.915-.915-1.108a3.9 3.9 0 0 0-.843-.072c-.217 0-.362-.072-.362-.217s.169-.193.482-.193c1.107 0 2.456.048 2.89.048.722 0 2.649-.048 3.3-.048a7.42 7.42 0 0 1 4.022.867 3.576 3.576 0 0 1 1.493 2.818c0 1.517-.867 2.866-2.938 4.527 1.878 2.312 3.371 4.167 4.648 5.443a3.972 3.972 0 0 0 2.264 1.349 2 2 0 0 0 .506.048.246.246 0 0 1 .265.217c0 .169-.144.217-.409.217h-2.023A4.589 4.589 0 0 1 303.2 281a9.6 9.6 0 0 1-2.89-3.01c-.842-1.108-1.734-2.48-2-2.793a.489.489 0 0 0-.386-.145l-1.9-.048a.152.152 0 0 0-.169.169v.289c0 1.9.024 3.492.121 4.359.072.6.169.987.819 1.084a8.119 8.119 0 0 0 1.035.072.246.246 0 0 1 .265.217c0 .145-.169.217-.433.217-1.229 0-2.986-.072-3.3-.072-.409 0-1.758.072-2.6.072-.264 0-.409-.072-.409-.217 0-.1.072-.217.337-.217a3.14 3.14 0 0 0 .746-.072c.434-.1.555-.482.627-1.084.1-.867.1-2.481.1-4.359zm2.7 1.59c0 .217.048.289.193.361a5.805 5.805 0 0 0 1.614.193 2.131 2.131 0 0 0 1.493-.337 3.464 3.464 0 0 0 1.372-3.035c0-2.89-1.974-3.636-3.227-3.636a7.66 7.66 0 0 0-1.252.072c-.145.048-.193.12-.193.289z" class="cls-1" transform="translate(-154.93 -262.864)"/>
                <path id="Path_66831" d="M325.568 275.46c0 2.625 0 3.926.457 4.311.362.313 1.181.433 2.818.433 1.131 0 1.95-.024 2.48-.578a2.466 2.466 0 0 0 .53-1.228c.024-.193.072-.314.241-.314.144 0 .192.217.192.458a15.626 15.626 0 0 1-.312 2.36c-.145.458-.241.554-1.349.554-1.518 0-2.746-.024-3.806-.072-1.059-.024-1.95-.048-2.817-.048-.241 0-.7.024-1.2.024-.505.024-1.035.048-1.469.048-.264 0-.409-.072-.409-.217 0-.1.072-.217.337-.217a3.141 3.141 0 0 0 .739-.074c.434-.1.555-.482.627-1.084.1-.867.1-2.481.1-4.359v-3.613c0-3.107 0-3.684-.024-4.335-.048-.7-.241-.915-.915-1.108a2.821 2.821 0 0 0-.7-.072c-.241 0-.362-.072-.362-.217s.145-.193.458-.193c.987 0 2.336.048 2.914.048.505 0 2.24-.048 3.058-.048.313 0 .457.048.457.193s-.121.217-.385.217a4.684 4.684 0 0 0-.819.072c-.578.1-.747.385-.795 1.108-.048.651-.048 1.228-.048 4.335z" class="cls-1" transform="translate(-167.978 -262.864)"/>
                <path id="Path_66832" d="M346.316 271.848c0-3.107 0-3.684-.024-4.335-.048-.7-.241-.915-.915-1.108a3.9 3.9 0 0 0-.843-.072c-.217 0-.362-.072-.362-.217s.169-.193.482-.193c1.107 0 2.456.048 3.059.048.65 0 2.167-.048 3.444-.048 2.649 0 6.214 0 8.526 2.336a7.172 7.172 0 0 1 2 5.2 7.94 7.94 0 0 1-2.312 5.708c-.964.963-3.2 2.408-7.1 2.408-.771 0-1.686-.072-2.529-.12-.843-.072-1.614-.121-2.143-.121-.241 0-.7.024-1.2.024-.506.024-1.035.048-1.47.048-.264 0-.409-.072-.409-.217 0-.1.072-.217.337-.217a3.147 3.147 0 0 0 .746-.072c.434-.1.554-.482.626-1.084.1-.867.1-2.481.1-4.359zm2.841 2.264c0 2.168.024 3.733.048 4.143a3.739 3.739 0 0 0 .241 1.445c.265.385 1.108.819 2.77.819a6.679 6.679 0 0 0 4.624-1.4c1.373-1.133 1.807-2.963 1.807-5.082a6.663 6.663 0 0 0-1.975-5.105 8.547 8.547 0 0 0-5.925-1.951 4.514 4.514 0 0 0-1.3.144.36.36 0 0 0-.265.409c-.024.7-.024 2.384-.024 4z" class="cls-1" transform="translate(-178.273 -262.864)"/>
            </g>
            <path id="Path_66833" d="M267 276.982v-2.762a.552.552 0 0 1 .827-.477l2.392 1.381 2.392 1.381a.552.552 0 0 1 0 .955l-2.392 1.38-2.392 1.381a.552.552 0 0 1-.827-.477z" class="cls-1" transform="translate(-144.385 -266.265)"/>
        </g>
    </g>
</svg>
