<svg xmlns="http://www.w3.org/2000/svg" width="253.514" height="66.049" viewBox="0 0 253.514 66.049"><defs><style>.a{fill:#039c03;}.b{fill:#03579c;}.c{fill:#f40334;}.d{fill:#e67603;}</style></defs><g transform="translate(-100.944 -121.477)"><g transform="translate(100.944 121.477)"><g transform="translate(26.75 63.22)"><path class="a" d="M202.029,244.938a1.193,1.193,0,0,1,.061-2.386,1.193,1.193,0,1,1-.061,2.386Z" transform="translate(-200.87 -242.55)"/><path class="a" d="M222.125,243.723a1.188,1.188,0,0,1-1.207,1.213,1.174,1.174,0,0,1-1.18-1.167,1.192,1.192,0,0,1,1.133-1.219A1.207,1.207,0,0,1,222.125,243.723Z" transform="translate(-209.925 -242.55)"/><path class="b" d="M211.52,243.4a1.194,1.194,0,1,1-1.215,1.133A1.2,1.2,0,0,1,211.52,243.4Z" transform="translate(-205.397 -242.956)"/></g><g transform="translate(33.962 5.602)"><path class="a" d="M218.509,166.383a2.73,2.73,0,0,0-.117.369c.007.038.132-.034.226-.113s.351-.305.317-.362S218.591,166.3,218.509,166.383Z" transform="translate(-216.491 -148.318)"/><path class="a" d="M255.346,165.618c-.034.056.223.282.317.361s.218.151.226.113a2.715,2.715,0,0,0-.117-.37C255.689,165.641,255.381,165.562,255.346,165.618Z" transform="translate(-234.225 -148.002)"/><path class="a" d="M241.119,157.2s-1.072-22.926-25.776-25.4c-.6-.195-.6.6-.6.6l0,25.186s-.086.686.586.635c.376.007.63.007.63.007l24.356-.016a2.263,2.263,0,0,0,.718-.079C241.2,158.03,241.119,157.2,241.119,157.2ZM236.8,150.77s.062.173-.172.117a1.523,1.523,0,0,1-.358-.128s-.042.2-.313.023a4.653,4.653,0,0,1-.9-.69c-.048-.1-.283-.36-.387-.512a.04.04,0,0,1-.043,0s-3.276-1.38-3.529-1.638-.536-.8-.716-.961c-.1-.091-.517-.538-.863-.913h0l-.111-.121-.033-.035-.059-.065-.3-.324s-.221.623-.3.959a9.429,9.429,0,0,0-.164,1.306c0,.057,0,.108,0,.145,0,.007,0,.016,0,.024a.721.721,0,0,0,.012.073c.011.054.028.118.049.19s.046.149.073.23c.136.4.323.871.323.871h0c.13.076.264.163.406.265,0,0,.563.165.756.217a.217.217,0,0,0,.064,0c.385-.029,2.039-.529,2.637-.529.643,0,.849-.038,1.081.077a2.314,2.314,0,0,1,.669,1.287,10.378,10.378,0,0,1-1.981,1.634,3.459,3.459,0,0,1-.867.412h0c-.315.083-1.222.346-2.258.651l-.383.113c.127.019.264.046.383.059a13,13,0,0,1,1.981.206c.373.141.811.695.54.952s-.939.154-1.273.09-1.969-.116-2.174-.18a3.341,3.341,0,0,1-.862-.334.9.9,0,0,0-.144-.063h0l-.408.294-.283-.09h0l-.441-.14h0l-1.086.323a.71.71,0,0,0-.055-.168c-.206.082-.419.135-.554.177-.205.064-1.84.116-2.174.18s-1,.167-1.273-.09.167-.811.54-.952a13,13,0,0,1,1.981-.206c.067-.007.141-.019.215-.031l-2.55-.812a2.029,2.029,0,0,1-.79-.392c-.3-.257-1.943-1.364-1.981-1.634a2.314,2.314,0,0,1,.669-1.287c.231-.115.437-.077,1.081-.077s2.508.579,2.7.527a2.831,2.831,0,0,0,.441-.21c.075-.041.149-.082.211-.118.107-.249.177-.418.226-.548.009-.025.018-.048.025-.071.02-.056.036-.106.048-.15a1.778,1.778,0,0,0,.051-.31,2.43,2.43,0,0,0,.021-.418,2.948,2.948,0,0,0-.089-.568c-.033-.132-.085-.293-.146-.461-.2-.544-.481-1.168-.481-1.168s-1.3,1.445-1.415,1.616a2.644,2.644,0,0,1-.849.793c-.4.214-2.841,1.707-2.841,1.707h0c-.094.147-.352.429-.4.536a3.73,3.73,0,0,1-.944.719c-.288.141-.268-.052-.268-.052a1.49,1.49,0,0,1-.385.126c-.237.043-.145-.114-.145-.114-.053-.015-.43.181-.437.038s.573-.618.58-.656-.075-.053-.143-.128.256-.573.3-.678a1.174,1.174,0,0,1,.475-.377c.159-.06.633.1.86.1h.2c.137-.1,2.088-2.208,2.485-2.418a4.438,4.438,0,0,0,1.238-1.267l-.1-.084c.212-.295.409-.617.459-.678.128-.154.833-1.351,1.211-1.539.3-.152,1.617-.6,2.109-.768a.831.831,0,0,1,.086-.031,7.848,7.848,0,0,0,.126-.79,2.291,2.291,0,0,1-.42-1.074h0c-.031.029-.054-.025-.054-.025a2.7,2.7,0,0,1-.169-.791c.024-.066.065-.068.1-.053a5.729,5.729,0,0,1-.085-1.028c.052-.147.218-1.033,2-.507,0,0,.557-.118.668.266a4.34,4.34,0,0,1-.072,1.3c.041-.024.093-.034.12.045a2.771,2.771,0,0,1-.183.788s-.022.047-.05.025a2.1,2.1,0,0,1-.413,1.026v0h0a3.248,3.248,0,0,0,.042.774,1.412,1.412,0,0,1,.187.069h0l.8.259.507.166a2.67,2.67,0,0,1,1.483,1.21c.151.264.292.61.482.9l-.074.059a16.473,16.473,0,0,0,1.154,1.524c.034.034,1.407.935,1.93,1.372a10.639,10.639,0,0,0,1.4.917h.127c.226,0,.7-.158.86-.1a1.173,1.173,0,0,1,.475.377c.045.106.369.6.3.679s-.151.09-.143.128.588.513.58.656S236.858,150.756,236.8,150.77Z" transform="translate(-214.737 -131.764)"/></g><g transform="translate(33.962 33.873)"><path class="c" d="M230.6,218.688a41.66,41.66,0,0,1-10.017,0c-2.484-.4-2.915-1.457-3.08-3.245-.073-.786-.088-2.073-.082-3.267l-2.679-.69,0,12.635s0,.792.6.6c7.107-.713,12.255-3.119,15.987-6.184C231.112,218.593,230.873,218.645,230.6,218.688Z" transform="translate(-214.742 -198.295)"/><path class="c" d="M241.03,186.217a2.263,2.263,0,0,0-.718-.079l-21.029-.014a1.518,1.518,0,0,1,.14,2.39c-.091.092-.172.183-.249.274l-.08,2.61c-.752-.685-.76-1.617.08-2.61l.081-2.664-2.712,0a2.047,2.047,0,0,1,.369,2.873c-.068.1-.131.191-.19.286l.65,3.809a2.071,2.071,0,0,1,.51,2.988l-.51-2.988a3.332,3.332,0,0,0-.272-.195l.04.02c-1.194-.761-1.367-2.113-.418-3.634l-.539-3.159h-.228s-.255,0-.63.006c-.671-.051-.586.635-.586.635l0,11.251,2.693.693c.015-.924.035-1.6.035-1.6h16.243s.02.668.035,1.588l2.873-.74c.336-.086.65,1.132.314,1.219l-3.173.817c.006,1.2-.009,2.487-.082,3.275a7.193,7.193,0,0,1-.168,1.071,29.364,29.364,0,0,0,7.607-17.2S241.2,186.311,241.03,186.217Zm-5.334,10.45-16.122-2.644c.147-.9,3.549-1.094,7.724-.477l.228-.484c-.487-.172-.808-.455-.764-.721.056-.343.7-.524,1.431-.4s1.284.5,1.227.84c-.044.266-.438.432-.954.439l.062.532C232.682,194.5,235.843,195.769,235.7,196.667Z" transform="translate(-214.737 -186.122)"/></g><path class="d" d="M186.1,157.577l0-25.186s0-.792-.6-.6c-7.017.7-12.126,3.058-15.846,6.068l.033.214a.678.678,0,0,1,.464.657.458.458,0,0,1-.135.275.524.524,0,0,1-.319.144.406.406,0,0,1-.465-.491l-.332-.162c-8.654,7.588-9.176,18.7-9.176,18.7s-.079.831.088.925a2.26,2.26,0,0,0,.717.079l24.356.016s.255,0,.63-.007C186.182,158.264,186.1,157.577,186.1,157.577Zm-11.4-22.506h.007a.5.5,0,0,1,.481.592l-.01,1.057a.491.491,0,0,1-.146.534.465.465,0,0,1-.329.123h-.007a.471.471,0,0,1-.491-.484q0-.665,0-1.331A.5.5,0,0,1,174.7,135.071Zm-9.618,7.734,0-.017a.508.508,0,0,1,.749-.289l.913.218c.47-.037.629.264.576.542a.51.51,0,0,1-.794.351l-.966-.192A.481.481,0,0,1,165.079,142.8Zm2.576,6.168-1.015.505a.494.494,0,0,1-.744-.124.5.5,0,0,1-.064-.286c.007-.253.181-.489.585-.447l.622-.341a.517.517,0,0,1,.883-.025l0,.007A.484.484,0,0,1,167.656,148.973Zm4.394,3.768a.362.362,0,0,1,.335-.385l4.665-.007a.389.389,0,0,1,0,.771l-4.665.007A.362.362,0,0,1,172.049,152.741Zm.337.69,4.665-.007a.388.388,0,0,1,0,.769l-4.665.007a.388.388,0,0,1,0-.77Zm4.668,1.84h-.375c-.123.231-.4.746-.529,1a.73.73,0,0,1-.385.392,5.722,5.722,0,0,1-2,0c-.126-.035-.369-.364-.369-.364l-.5-1.021h-.5a.389.389,0,0,1,0-.771l4.666-.007a.39.39,0,0,1,0,.771Zm.294-3.8v.244a.371.371,0,0,1-.371.372h-.623l0,.006h-3.9a.371.371,0,0,1-.372-.371v-.243a1.66,1.66,0,0,0-.764-1.395,6.284,6.284,0,1,1,6.79-.01A1.659,1.659,0,0,0,177.349,151.47Zm3.575-13.495L180.1,139a.492.492,0,0,1-.664.035A.429.429,0,0,1,179.4,139a.532.532,0,0,1,.089-.8l.707-.907a.491.491,0,0,1,.718-.031l.01.009A.5.5,0,0,1,180.924,137.975Zm2.6,11.359a.493.493,0,0,1-.778.1l-.9-.454a.479.479,0,0,1-.354-.722l0-.007a.509.509,0,0,1,.757-.129l.96.49a.443.443,0,0,1,.376.442A.5.5,0,0,1,183.527,149.334Zm.244-5.932-.868.189a.617.617,0,0,1-.4.091.424.424,0,0,1-.416-.356.124.124,0,0,0,0-.016.561.561,0,0,1,.008-.263.423.423,0,0,1,.065-.15.433.433,0,0,1,.339-.2l1.089-.217C184.369,142.138,184.709,143.446,183.771,143.4Z" transform="translate(-154.361 -126.162)"/><path class="d" d="M182.791,152.019c.075.4.141.752.205,1.1.034.187.043.376-.164.468a.79.79,0,0,1-.716-.008c-.185-.1-.172-.264-.151-.467a8.291,8.291,0,0,0,.225-1.7.482.482,0,0,1,.359-.522c.789-.328,1.578-.658,2.361-1a.77.77,0,0,1,.663.018q1.133.489,2.271.968c.225.095.412.2.417.485a.5.5,0,0,1-.43.525.9.9,0,0,0-.763,1.177c.081.449-.023.762-.6.748a1.4,1.4,0,0,0-.942.387.393.393,0,0,1-.6.011,1.717,1.717,0,0,0-1.134-.423c-.329-.01-.434-.166-.415-.469.012-.2-.023-.4.007-.592C183.451,152.292,183.244,152.089,182.791,152.019Zm.271-.63c.633.27,1.155.5,1.679.714.165.069.37.209.5.161.694-.251,1.371-.551,2.147-.872-.713-.316-1.3-.571-1.883-.835a.621.621,0,0,0-.524-.018C184.381,150.8,183.783,151.069,183.062,151.389Zm3.39,1.463c.029-.4-.2-.308-.4-.192a1.469,1.469,0,0,1-1.624.023c-.109-.067-.333-.285-.412.032-.05.2-.1.454.269.506a3.507,3.507,0,0,1,.736.271,4.8,4.8,0,0,0,1.4-.4A.968.968,0,0,0,186.451,152.853Z" transform="translate(-165.042 -134.831)"/><path class="b" d="M185.51,186.059c-.375-.006-.63-.006-.63-.006l-24.356.016a2.248,2.248,0,0,0-.717.08c-.167.094-.088.925-.088.925s1.071,22.926,25.776,25.4c.6.194.6-.6.6-.6l0-25.186S186.182,186.008,185.51,186.059Zm-7.483,15.96a3.2,3.2,0,0,1-2.527,3.091c-.08.017-.162.024-.272.04,0-.238-.006-.455.006-.671,0-.043.068-.092.115-.121a.77.77,0,0,0,.4-.765.747.747,0,0,0-.473-.656.8.8,0,0,0-1.013.36.77.77,0,0,0,.258,1.012.9.9,0,0,0,.613.149.809.809,0,0,1-.587.026v.683c-.14-.019-.261-.03-.379-.053a3.178,3.178,0,0,1-2.493-2.581c-.029-.178-.035-.36-.056-.539-.015-.129.038-.169.166-.169.7.005,1.409,0,2.113,0,.207,0,.415-.009.621,0a.307.307,0,0,0,.348-.309c0-.185-.139-.306-.355-.307-.819,0-1.637,0-2.455,0-.138,0-.327.04-.4-.033s-.033-.261-.037-.4.006-.291,0-.435.046-.167.171-.166c.6,0,1.191,0,1.786,0,.311,0,.622,0,.933,0,.229,0,.357-.108.362-.295s-.133-.314-.361-.315q-1.344,0-2.688,0c-.2,0-.2,0-.2-.206s0-.414,0-.622,0-.208.2-.208c.907,0,1.813,0,2.72,0a.3.3,0,0,0,.3-.43.34.34,0,0,0-.347-.185q-1.3,0-2.6,0c-.314,0-.276.051-.279-.28,0-.191.008-.384,0-.575-.008-.141.048-.176.179-.175.849,0,1.7,0,2.548,0a2.225,2.225,0,0,0,.264-.008.287.287,0,0,0,.262-.3.293.293,0,0,0-.244-.3,1.077,1.077,0,0,0-.2-.012c-.875,0-1.751,0-2.626,0-.147,0-.181-.046-.181-.185a3.214,3.214,0,0,1,2.516-3.1,3.205,3.205,0,0,1,3.886,3.091C178.034,198.063,178.032,200.041,178.027,202.02Zm4.355-.723a2.9,2.9,0,0,1-1.31.336l-.133.008c0,.1,0,.2,0,.292s-.034.12-.121.119c-.264,0-.528,0-.793,0-.085,0-.125-.031-.119-.119,0-.041,0-.083,0-.124q0-3.146,0-6.292v-.21h1.019l.024.356a2.632,2.632,0,0,1,1.336.281,7.247,7.247,0,0,0-3.261-6.015,7.169,7.169,0,0,0-7.88-.329,7.275,7.275,0,0,0-3.761,6.328,2.673,2.673,0,0,1,1.317-.263l.022-.358h1.01c0,.061.01.121.01.181q0,3.185,0,6.37c0,.163-.049.2-.2.2-.268-.011-.537,0-.82,0l-.022-.386a7.576,7.576,0,0,1-.859-.146,2.809,2.809,0,0,1-2-1.985,2.985,2.985,0,0,1,.351-2.559.308.308,0,0,0,.037-.176,8.633,8.633,0,0,1,6.28-9.028,8.1,8.1,0,0,1,3.181-.27,8.5,8.5,0,0,1,6.679,4.413,7.573,7.573,0,0,1,1,3.152c.049.57.027,1.146.042,1.719a.479.479,0,0,0,.064.228A3.048,3.048,0,0,1,182.381,201.3Z" transform="translate(-154.361 -152.216)"/><path class="b" d="M182.286,120.993a32.854,32.854,0,0,0-8.315,64.638l.452-1.512a31.273,31.273,0,1,1,15.78-.015l.41,1.524a32.854,32.854,0,0,0-8.328-64.634Z" transform="translate(-149.436 -120.993)"/></g><g transform="translate(184.394 145.477)"><path class="b" d="M52.547,261.05c.067-.379.2-.58.38-.58s.313.112.6.692l6.1,12.416L65.7,261.006c.178-.357.29-.536.491-.536s.335.224.4.692l2.032,13.667c.2,1.407.424,2.054,1.094,2.256a4.484,4.484,0,0,0,1.385.223c.2,0,.357.022.357.157,0,.179-.268.246-.581.246-.558,0-3.64-.045-4.533-.112-.514-.045-.648-.112-.648-.246,0-.112.089-.178.245-.245.134-.044.2-.335.112-.96l-1.34-9.714h-.089l-4.868,9.96c-.513,1.05-.625,1.251-.826,1.251s-.424-.447-.782-1.117c-.536-1.027-2.3-4.444-2.568-5.069-.2-.469-1.541-3.1-2.323-4.779h-.089l-1.161,8.709a8.821,8.821,0,0,0-.067,1.05c0,.424.29.626.67.715a4.337,4.337,0,0,0,.938.111c.178,0,.335.045.335.157,0,.2-.2.246-.536.246-.938,0-1.943-.067-2.345-.067-.424,0-1.5.067-2.21.067-.224,0-.4-.045-.4-.246,0-.112.134-.157.357-.157a2.889,2.889,0,0,0,.67-.067c.625-.134.8-1,.915-1.764Z" transform="translate(-48.394 -260.47)"/><path class="b" d="M97.134,271.417c0-2.881,0-3.416-.022-4.02-.045-.647-.245-.871-.67-1a2.508,2.508,0,0,0-.715-.089c-.2,0-.313-.044-.313-.223,0-.112.156-.157.469-.157.737,0,2.077.045,2.635.045.491,0,1.764-.045,2.523-.045.245,0,.4.045.4.157,0,.179-.112.223-.313.223a2.728,2.728,0,0,0-.581.067c-.536.089-.692.357-.736,1.027-.045.6-.045,1.139-.045,4.02v3.35c0,1.831,0,3.35.089,4.154.067.513.2.8.782.893a7.419,7.419,0,0,0,1,.067c.224,0,.313.112.313.2,0,.134-.157.2-.38.2-1.3,0-2.635-.067-3.171-.067-.446,0-1.786.067-2.568.067-.245,0-.38-.067-.38-.2,0-.089.067-.2.313-.2a2.92,2.92,0,0,0,.692-.067c.4-.089.513-.357.58-.915.089-.782.089-2.3.089-4.132Z" transform="translate(-70.96 -263.087)"/><path class="b" d="M114.364,271.417c0-2.881,0-3.416-.022-4.02-.045-.647-.223-.849-.849-1.027a3.612,3.612,0,0,0-.781-.067c-.2,0-.335-.067-.335-.2s.157-.179.447-.179c1.027,0,2.278.045,2.836.045.6,0,2.01-.045,3.193-.045,2.457,0,5.761,0,7.905,2.166a6.648,6.648,0,0,1,1.854,4.824,7.362,7.362,0,0,1-2.144,5.293c-.893.893-2.97,2.233-6.587,2.233-.715,0-1.563-.067-2.345-.111-.782-.067-1.5-.112-1.987-.112-.224,0-.648.022-1.117.022-.469.022-.961.045-1.362.045-.246,0-.38-.067-.38-.2,0-.089.067-.2.313-.2a2.92,2.92,0,0,0,.692-.067c.4-.089.513-.447.58-1,.089-.8.089-2.3.089-4.042Zm2.635,2.1c0,2.01.022,3.462.044,3.841a3.459,3.459,0,0,0,.224,1.34c.245.357,1.027.759,2.568.759a6.194,6.194,0,0,0,4.288-1.295c1.273-1.05,1.675-2.747,1.675-4.712a6.176,6.176,0,0,0-1.831-4.734,7.925,7.925,0,0,0-5.494-1.809,4.182,4.182,0,0,0-1.206.134.333.333,0,0,0-.245.38c-.022.648-.022,2.211-.022,3.707Z" transform="translate(-79.1 -263.087)"/><path class="b" d="M149.866,271.417c0-2.881,0-3.416-.022-4.02-.045-.647-.245-.871-.67-1a2.508,2.508,0,0,0-.715-.089c-.2,0-.313-.044-.313-.223,0-.112.157-.157.469-.157.737,0,2.077.045,2.635.045.491,0,1.764-.045,2.523-.045.245,0,.4.045.4.157,0,.179-.112.223-.313.223a2.728,2.728,0,0,0-.581.067c-.536.089-.692.357-.737,1.027-.044.6-.044,1.139-.044,4.02v3.35c0,1.831,0,3.35.089,4.154.067.513.2.8.782.893a7.419,7.419,0,0,0,1,.067c.224,0,.313.112.313.2,0,.134-.156.2-.379.2-1.3,0-2.635-.067-3.171-.067-.446,0-1.786.067-2.568.067-.245,0-.38-.067-.38-.2,0-.089.067-.2.313-.2a2.922,2.922,0,0,0,.693-.067c.4-.089.513-.357.58-.915.089-.782.089-2.3.089-4.132Z" transform="translate(-96.267 -263.087)"/><path class="b" d="M178.514,278.762c0,.514,0,.536-.245.67a11.837,11.837,0,0,1-4.8.848c-4.823,0-9.089-2.189-9.089-7.436a7.026,7.026,0,0,1,3.439-6.208,9.843,9.843,0,0,1,5.292-1.228,22.383,22.383,0,0,1,3.484.313,15.66,15.66,0,0,0,1.563.2c.224.022.268.089.268.223a25.715,25.715,0,0,0-.134,3.126c0,.291-.112.424-.268.424-.134,0-.179-.089-.2-.245a2.525,2.525,0,0,0-.67-1.563,6.089,6.089,0,0,0-4.265-1.452,5.513,5.513,0,0,0-3.8,1.117c-1.094.893-1.809,2.3-1.809,4.622,0,4.087,2.635,7.057,6.834,7.057a3.213,3.213,0,0,0,1.384-.2.627.627,0,0,0,.38-.67v-1.742c0-.938,0-1.652-.022-2.233-.022-.647-.224-.848-.849-1.027a3.527,3.527,0,0,0-.759-.067c-.178,0-.313-.089-.313-.2,0-.157.157-.179.424-.179,1.027,0,2.434.045,3.015.045.625,0,1.652-.045,2.3-.045.268,0,.4.022.4.179a.227.227,0,0,1-.245.2,2.679,2.679,0,0,0-.536.067c-.536.089-.737.357-.759,1.027-.022.581-.022,1.34-.022,2.278Z" transform="translate(-104.057 -262.84)"/><path class="b" d="M200.537,271.417c0-2.881,0-3.416-.022-4.02-.045-.647-.246-.871-.67-1a2.5,2.5,0,0,0-.715-.089c-.2,0-.313-.044-.313-.223,0-.112.157-.157.469-.157.737,0,2.077.045,2.635.045.491,0,1.764-.045,2.523-.045.245,0,.4.045.4.157,0,.179-.112.223-.313.223a2.729,2.729,0,0,0-.581.067c-.536.089-.692.357-.737,1.027-.045.6-.045,1.139-.045,4.02v3.35c0,1.831,0,3.35.089,4.154.067.513.2.8.782.893a7.419,7.419,0,0,0,1,.067c.224,0,.313.112.313.2,0,.134-.156.2-.38.2-1.3,0-2.635-.067-3.171-.067-.447,0-1.786.067-2.568.067-.245,0-.38-.067-.38-.2,0-.089.067-.2.313-.2a2.914,2.914,0,0,0,.692-.067c.4-.089.514-.357.581-.915.089-.782.089-2.3.089-4.132Z" transform="translate(-120.585 -263.087)"/><path class="b" d="M214.495,267.777c-.246-.692-.4-1.139-.692-1.317a1.6,1.6,0,0,0-.759-.157c-.2,0-.313-.067-.313-.2s.157-.179.447-.179c1,0,2.1.045,2.278.045s1.139-.045,2.277-.045c.291,0,.425.045.425.179s-.157.2-.358.2a1.27,1.27,0,0,0-.491.089c-.179.067-.2.178-.2.38a10.937,10.937,0,0,0,.424,1.742c.335,1.251,2.122,6.99,2.412,7.861h.067l3.752-9.714c.2-.536.4-.692.58-.692.224,0,.4.291.648.893l3.931,9.379h.067c.379-1.094,1.875-6.1,2.568-8.307a4.087,4.087,0,0,0,.2-1.094c0-.313-.179-.536-.961-.536-.178,0-.334-.089-.334-.2,0-.134.156-.179.469-.179,1.028,0,1.92.045,2.1.045.134,0,.983-.045,1.63-.045.223,0,.357.045.357.157,0,.134-.089.223-.268.223a2.558,2.558,0,0,0-.692.089c-.47.178-.692.893-1.095,1.988-.915,2.389-2.925,8.419-3.885,11.255-.224.67-.335.893-.626.893-.268,0-.4-.223-.693-.915l-4-9.38h-.045c-.335.8-2.97,7.548-3.774,9.29-.357.782-.469,1-.759,1-.245,0-.357-.2-.536-.692Z" transform="translate(-127.262 -263.087)"/><path class="b" d="M256.487,272.845c0-3.239,2.278-7.437,8.241-7.437,4.957,0,8.039,2.747,8.039,7.1s-3.171,7.772-8.241,7.772C258.81,280.281,256.487,276.216,256.487,272.845Zm13.355.357c0-4.2-2.524-6.789-5.695-6.789-2.189,0-4.757,1.161-4.757,5.851,0,3.908,2.233,6.99,5.94,6.99C266.715,279.254,269.842,278.606,269.842,273.2Z" transform="translate(-148.261 -262.84)"/><path class="b" d="M293,271.417c0-2.881,0-3.416-.022-4.02-.045-.647-.224-.849-.849-1.027a3.623,3.623,0,0,0-.782-.067c-.2,0-.335-.067-.335-.2s.157-.179.447-.179c1.027,0,2.277.045,2.68.045.67,0,2.456-.045,3.06-.045a6.881,6.881,0,0,1,3.729.8,3.316,3.316,0,0,1,1.384,2.613c0,1.407-.8,2.658-2.724,4.2,1.742,2.144,3.126,3.864,4.31,5.047a3.684,3.684,0,0,0,2.1,1.251,1.853,1.853,0,0,0,.469.044.228.228,0,0,1,.245.2c0,.157-.134.2-.38.2h-1.876a4.254,4.254,0,0,1-2.144-.38,8.9,8.9,0,0,1-2.68-2.791c-.781-1.027-1.608-2.3-1.853-2.59a.453.453,0,0,0-.358-.134l-1.764-.045a.141.141,0,0,0-.157.157v.268c0,1.764.022,3.238.112,4.042.067.558.157.915.759,1a7.524,7.524,0,0,0,.96.067.228.228,0,0,1,.245.2c0,.134-.157.2-.4.2-1.139,0-2.769-.067-3.06-.067-.38,0-1.63.067-2.412.067-.245,0-.379-.067-.379-.2,0-.089.067-.2.312-.2a2.911,2.911,0,0,0,.692-.067c.4-.089.514-.447.581-1,.089-.8.089-2.3.089-4.042Zm2.5,1.474c0,.2.045.268.179.335a5.379,5.379,0,0,0,1.5.179,1.976,1.976,0,0,0,1.384-.313,3.212,3.212,0,0,0,1.273-2.814c0-2.679-1.831-3.372-2.993-3.372a7.1,7.1,0,0,0-1.161.067c-.134.044-.179.111-.179.268Z" transform="translate(-164.83 -263.087)"/><path class="b" d="M325.216,274.767c0,2.434,0,3.64.424,4,.335.29,1.095.4,2.613.4,1.049,0,1.808-.022,2.3-.536a2.286,2.286,0,0,0,.491-1.138c.022-.179.067-.291.223-.291.134,0,.178.2.178.424a14.489,14.489,0,0,1-.29,2.189c-.134.424-.224.514-1.251.514-1.407,0-2.546-.022-3.529-.067-.982-.022-1.808-.045-2.612-.045-.224,0-.648.022-1.117.022-.469.022-.96.045-1.362.045-.245,0-.379-.067-.379-.2,0-.089.067-.2.312-.2a2.911,2.911,0,0,0,.692-.067c.4-.089.514-.447.581-1,.089-.8.089-2.3.089-4.042v-3.35c0-2.881,0-3.416-.022-4.02-.045-.647-.224-.849-.849-1.027a2.623,2.623,0,0,0-.648-.067c-.224,0-.335-.067-.335-.2s.134-.179.424-.179c.915,0,2.166.045,2.7.045.469,0,2.077-.045,2.836-.045.29,0,.424.045.424.179s-.112.2-.357.2a4.353,4.353,0,0,0-.759.067c-.536.089-.692.357-.737,1.027-.045.6-.045,1.139-.045,4.02Z" transform="translate(-179.091 -263.087)"/><path class="b" d="M346.16,271.417c0-2.881,0-3.416-.022-4.02-.045-.647-.224-.849-.849-1.027a3.62,3.62,0,0,0-.782-.067c-.2,0-.335-.067-.335-.2s.157-.179.447-.179c1.027,0,2.277.045,2.836.045.6,0,2.01-.045,3.193-.045,2.456,0,5.762,0,7.905,2.166a6.65,6.65,0,0,1,1.854,4.824,7.362,7.362,0,0,1-2.144,5.293c-.894.893-2.97,2.233-6.588,2.233-.715,0-1.563-.067-2.345-.111-.782-.067-1.5-.112-1.987-.112-.224,0-.647.022-1.117.022-.469.022-.96.045-1.363.045-.245,0-.379-.067-.379-.2,0-.089.067-.2.313-.2a2.917,2.917,0,0,0,.692-.067c.4-.089.514-.447.581-1,.089-.8.089-2.3.089-4.042Zm2.635,2.1c0,2.01.022,3.462.045,3.841a3.471,3.471,0,0,0,.223,1.34c.245.357,1.027.759,2.568.759a6.193,6.193,0,0,0,4.288-1.295c1.273-1.05,1.675-2.747,1.675-4.712a6.178,6.178,0,0,0-1.831-4.734,7.925,7.925,0,0,0-5.494-1.809,4.183,4.183,0,0,0-1.206.134.334.334,0,0,0-.245.38c-.022.648-.022,2.211-.022,3.707Z" transform="translate(-190.343 -263.087)"/><path class="b" d="M267,276.741V274.18a.512.512,0,0,1,.767-.443l2.218,1.28,2.218,1.28a.512.512,0,0,1,0,.886l-2.218,1.28-2.218,1.28A.511.511,0,0,1,267,279.3Z" transform="translate(-153.306 -266.804)"/></g></g></svg>