<svg xmlns="http://www.w3.org/2000/svg" width="21.097" height="20.862" viewBox="0 0 21.097 20.862">
    <g>
        <g>
            <g>
                <path fill="none" stroke="#2c516c" d="M55.135 17.463a3.025 3.025 0 0 0-3.013 3.011v11.054a3.032 3.032 0 0 0 3.013 3.019h6.029A2.943 2.943 0 0 1 63.5 35.7l.667.875a2.03 2.03 0 0 0 3.509-.7l.045-.194a1.521 1.521 0 0 1 1.484-1.134 3.03 3.03 0 0 0 3.011-3.019V20.474a3.023 3.023 0 0 0-3.011-3.011zm2.01 7.034a2.01 2.01 0 1 1-2.01 2.01 2.025 2.025 0 0 1 2.01-2.007zm5.03 0a2.01 2.01 0 1 1-2.012 2.01 2.025 2.025 0 0 1 2.012-2.007zm5.021 0a2.01 2.01 0 1 1-2.01 2.01A2.027 2.027 0 0 1 67.2 24.5z" transform="translate(17604.5 7241.501) translate(-17604 -7241) translate(-52.122 -17.463)"/>
            </g>
        </g>
    </g>
</svg>
