<svg xmlns="http://www.w3.org/2000/svg" width="17.391" height="17.18" viewBox="0 0 17.391 17.18">
    <g>
        <path fill="#05589c" d="M54.73 17.463a2.618 2.618 0 0 0-2.607 2.606v9.566a2.624 2.624 0 0 0 2.607 2.612h5.218a2.547 2.547 0 0 1 2.023 1l.578.758a1.757 1.757 0 0 0 3.037-.6l.039-.168a1.317 1.317 0 0 1 1.284-.982 2.622 2.622 0 0 0 2.606-2.612v-9.575a2.616 2.616 0 0 0-2.606-2.606zm1.739 6.088a1.739 1.739 0 1 1-1.739 1.739 1.753 1.753 0 0 1 1.739-1.74zm4.353 0a1.739 1.739 0 1 1-1.741 1.739 1.753 1.753 0 0 1 1.741-1.74zm4.345 0a1.739 1.739 0 1 1-1.739 1.739 1.754 1.754 0 0 1 1.739-1.74z" transform="translate(-52.122 -17.463)"/>
    </g>
</svg>
