<svg xmlns="http://www.w3.org/2000/svg" width="24" height="24" viewBox="0 0 24 24">
    <g transform="translate(-14070 -8649)">
        <circle cx="12" cy="12" r="12" fill="#fdf7e3" transform="translate(14070 8649)"/>
        <path fill="#ffbf00" d="M39.881 28.64l-.77-7.841a.405.405 0 0 1 .44-.405h2.909a.405.405 0 0 1 .44.405l-.77 7.841h-2.25zm1.573.794h-.9a.657.657 0 0 0-.68.632v.648a.657.657 0 0 0 .68.632h.9a.657.657 0 0 0 .68-.632v-.648a.657.657 0 0 0-.679-.633z" transform="translate(14041.024 8635.606)"/>
    </g>
</svg>
