<svg xmlns="http://www.w3.org/2000/svg" width="183" height="154" viewBox="0 0 183 154">
    <defs>
        <style>
            .cls-1{fill:#042875;opacity:.098}.cls-3{fill:#03579c}.cls-5{fill:none;stroke:#eb5d33;stroke-linecap:round;stroke-width:3px}
        </style>
    </defs>
    <g id="Group_19630" transform="translate(-97.498 -281.588)">
        <g id="Group_17039" transform="translate(97 282.001)">
            <ellipse id="Ellipse_1223" cx="20.5" cy="21" class="cls-1" rx="20.5" ry="21" transform="translate(113.498 -.413)"/>
            <ellipse id="Ellipse_1222" cx="13.5" cy="14" class="cls-1" rx="13.5" ry="14" transform="translate(156.498 125.587)"/>
            <ellipse id="Ellipse_1234" cx="13.5" cy="14" class="cls-1" rx="13.5" ry="14" transform="translate(.498 41.587)"/>
            <ellipse id="Ellipse_1221" cx="7" cy="6.5" class="cls-1" rx="7" ry="6.5" transform="translate(81.498 7.587)"/>
        </g>
        <ellipse id="Ellipse_1225" cx="6.5" cy="7" class="cls-1" rx="6.5" ry="7" transform="translate(160.499 408.588)"/>
        <g id="debit-card" transform="translate(137.162 309.179)">
            <path id="Path_70041" fill="#e6eaf1" d="M21.594 119.525V59.53A7.54 7.54 0 0 1 29.188 52h-7.594A7.54 7.54 0 0 0 14 59.53v59.994a7.648 7.648 0 0 0 7.594 7.658h7.594a7.648 7.648 0 0 1-7.594-7.657z" transform="translate(-12.481 -50.48)"/>
            <g id="Group_17010">
                <path id="Path_70044" d="M115.332 46H17.113A9.069 9.069 0 0 0 8 55.049v59.994a9.177 9.177 0 0 0 9.112 9.176h63.033v-3.038H17.113a6.137 6.137 0 0 1-6.075-6.139V80.933H24.2a1.519 1.519 0 1 0 0-3.038H11.038v-12.15h110.369V77.9h-87.08a1.519 1.519 0 1 0 0 3.038h87.08v24.3h3.038V55.049A9.069 9.069 0 0 0 115.332 46zM11.038 62.707v-7.658a6.029 6.029 0 0 1 6.075-6.012h98.219a6.029 6.029 0 0 1 6.075 6.012v7.658z" class="cls-3" transform="translate(-8 -46)"/>
                <path id="Path_70045" d="M50.986 232a8.986 8.986 0 1 0 0 17.973h17.72a8.986 8.986 0 1 0 0-17.973zm23.669 8.986a5.956 5.956 0 0 1-5.949 5.949h-17.72a5.949 5.949 0 1 1 0-11.9h17.72a5.956 5.956 0 0 1 5.949 5.952z" class="cls-3" transform="translate(-33.393 -184.916)"/>
                <g id="Group_19290" transform="translate(8.013 23.29)">
                    <path id="Path_70046" d="M41.187 138h-.015a1.544 1.544 0 0 0-1.519 1.533 1.5 1.5 0 0 0 1.5 1.512l1.595-.007h.014a1.489 1.489 0 0 0 1.519-1.468 1.528 1.528 0 0 0-1.5-1.544z" class="cls-3" transform="translate(-39.654 -138)"/>
                    <path id="Path_70047" d="M105.956 141.291a1.49 1.49 0 0 0 1.519-1.478 1.555 1.555 0 0 0-1.511-1.568L66.475 138h-.008a1.569 1.569 0 0 0-1.519 1.569 1.515 1.515 0 0 0 1.511 1.522l39.49.2z" class="cls-3" transform="translate(-58.545 -138)"/>
                </g>
            </g>
            <path id="Path_70048" fill="#f05e23" d="M314.014 248.733a27.531 27.531 0 1 0 27.531 27.531 27.531 27.531 0 0 0-27.531-27.531zm0 52.025a24.494 24.494 0 1 1 24.493-24.493 24.494 24.494 0 0 1-24.493 24.493z" transform="translate(-216.145 -197.323)"/>
            <g id="Group_19659" transform="translate(.263 .264)">
                <path id="Line_675" d="M0 0L0 21.527" class="cls-5" transform="translate(97.837 68.145)"/>
                <path id="Line_676" d="M0 0L0 21.527" class="cls-5" transform="rotate(90 14.846 93.755)"/>
            </g>
        </g>
    </g>
</svg>
