<svg xmlns="http://www.w3.org/2000/svg" width="174" height="135" viewBox="0 0 174 135">
    <defs>
        <style>
            .cls-1{fill:#042875;opacity:.098}.cls-3{fill:#03579c}
        </style>
    </defs>
    <g id="Group_19705" transform="translate(-124 -290.001)">
        <g id="Group_17039" transform="translate(224.935 210.277)">
            <circle id="Ellipse_1223" cx="22" cy="22" r="22" class="cls-1" transform="translate(18.065 86.724)"/>
            <ellipse id="Ellipse_1222" cx="14.5" cy="15" class="cls-1" rx="14.5" ry="15" transform="translate(44.065 184.724)"/>
            <ellipse id="Ellipse_1234" cx="14.5" cy="15" class="cls-1" rx="14.5" ry="15" transform="translate(-100.935 115.724)"/>
            <ellipse id="Ellipse_1221" cx="7.5" cy="7" class="cls-1" rx="7.5" ry="7" transform="translate(-13.935 79.724)"/>
        </g>
        <path id="Path_70018" fill="#e6eaf1" d="M25.206 127.41h-7.985A6.225 6.225 0 0 0 11 133.639v67.194a6.223 6.223 0 0 0 6.221 6.229h7.985a6.223 6.223 0 0 1-6.221-6.229v-67.194a6.225 6.225 0 0 1 6.221-6.229z" transform="translate(138.657 202.436)"/>
        <g id="Group_17009" transform="translate(148.06 328.25)">
            <g id="Group_19612">
                <path id="Path_70019" d="M122.944 172.456h-22.929a1.6 1.6 0 1 0 0 3.194h22.929a1.6 1.6 0 1 0 0-3.194z" class="cls-3" transform="translate(-73.552 -158.869)"/>
                <path id="Path_70020" d="M54.982 175.65h5.043a1.6 1.6 0 0 0 0-3.194h-5.043a1.6 1.6 0 0 0 0 3.194z" class="cls-3" transform="translate(-40.506 -158.869)"/>
                <path id="Path_70021" d="M167.107 236.026H160.2a1.6 1.6 0 1 0 0 3.194h6.91a1.6 1.6 0 1 0 0-3.194z" class="cls-3" transform="translate(-117.715 -205.518)"/>
                <path id="Path_70022" d="M54.982 239.22h21.172a1.6 1.6 0 1 0 0-3.194H54.982a1.6 1.6 0 1 0 0 3.194z" class="cls-3" transform="translate(-40.506 -205.518)"/>
                <path id="Path_70023" d="M128.141 299.6H107.1a1.6 1.6 0 1 0 0 3.194h21.04a1.6 1.6 0 1 0 0-3.194z" class="cls-3" transform="translate(-78.749 -252.17)"/>
                <path id="Path_70024" d="M54.982 302.794h6.957a1.6 1.6 0 1 0 0-3.194h-6.957a1.6 1.6 0 1 0 0 3.194z" class="cls-3" transform="translate(-40.506 -252.17)"/>
                <path id="Path_70025" d="M164.654 363.167h-7.8a1.6 1.6 0 1 0 0 3.194h7.8a1.6 1.6 0 0 0 0-3.194z" class="cls-3" transform="translate(-115.263 -298.816)"/>
                <path id="Path_70026" d="M54.982 366.361h20.35a1.6 1.6 0 1 0 0-3.194h-20.35a1.6 1.6 0 1 0 0 3.194z" class="cls-3" transform="translate(-40.506 -298.816)"/>
                <path id="Path_70027" d="M321.992 174.053a1.6 1.6 0 0 0 1.6 1.6h10.64a1.6 1.6 0 0 0 0-3.194h-10.64a1.6 1.6 0 0 0-1.6 1.594z" class="cls-3" transform="translate(-237.616 -158.869)"/>
                <path id="Path_70028" d="M283.716 175.65h3.753a1.6 1.6 0 1 0 0-3.194h-3.753a1.6 1.6 0 1 0 0 3.194z" class="cls-3" transform="translate(-208.356 -158.869)"/>
                <path id="Path_70029" d="M378.275 239.22h9.746a1.6 1.6 0 1 0 0-3.194h-9.746a1.6 1.6 0 0 0 0 3.194z" class="cls-3" transform="translate(-277.746 -205.518)"/>
                <path id="Path_70030" d="M283.716 239.22h18.123a1.6 1.6 0 0 0 0-3.194h-18.123a1.6 1.6 0 1 0 0 3.194z" class="cls-3" transform="translate(-208.356 -205.518)"/>
                <path id="Path_70031" d="M352.336 299.6h-22.689a1.6 1.6 0 1 0 0 3.194h22.689a1.6 1.6 0 1 0 0-3.194z" class="cls-3" transform="translate(-242.062 -252.17)"/>
                <path id="Path_70032" d="M283.716 302.794h5.433a1.6 1.6 0 0 0 0-3.194h-5.433a1.6 1.6 0 1 0 0 3.194z" class="cls-3" transform="translate(-208.356 -252.17)"/>
                <path id="Path_70033" d="M400.751 363.167h-5.128a1.6 1.6 0 0 0 0 3.194h5.128a1.6 1.6 0 1 0 0-3.194z" class="cls-3" transform="translate(-290.476 -298.816)"/>
                <path id="Path_70034" d="M283.716 366.361h23.021a1.6 1.6 0 1 0 0-3.194h-23.021a1.6 1.6 0 1 0 0 3.194z" class="cls-3" transform="translate(-208.356 -298.816)"/>
                <path id="Path_70035" d="M33.494 160.635a1.6 1.6 0 1 0-3.194 0v1.676a1.6 1.6 0 0 0 3.194 0z" class="cls-3" transform="translate(-23.566 -149.023)"/>
                <path id="Path_70036" d="M31.9 188.333a1.6 1.6 0 0 0-1.6 1.6V206.7a1.6 1.6 0 1 0 3.194 0v-16.77a1.6 1.6 0 0 0-1.594-1.597z" class="cls-3" transform="translate(-23.566 -170.52)"/>
            </g>
            <path id="Path_70037" d="M127.275 196.432a4.633 4.633 0 0 1-4.625 4.632h-47.9a2.559 2.559 0 0 0-1.787.727L69.6 205.07l-.53-13.088a1.6 1.6 0 1 0-3.194.032l.53 12.986-3.289-3.206a2.559 2.559 0 0 0-1.786-.727H12.818a4.633 4.633 0 0 1-4.624-4.632v-67.197a4.633 4.633 0 0 1 4.624-4.631h46.123a6.741 6.741 0 0 1 6.73 6.746l.1 50.015a1.6 1.6 0 1 0 3.194-.032l-.1-50h.009a6.737 6.737 0 0 1 6.73-6.73h25.777v-3.194H75.6a9.922 9.922 0 0 0-8.331 4.542 9.923 9.923 0 0 0-8.331-4.542h-46.12A7.831 7.831 0 0 0 5 129.238v67.194a7.831 7.831 0 0 0 7.818 7.826h48.256l5.182 5.052a2.545 2.545 0 0 0 3.574 0l5.181-5.052h47.64a7.831 7.831 0 0 0 7.818-7.826v-57.589h-3.194z" class="cls-3" transform="translate(-5 -121.412)"/>
        </g>
        <path id="Path_70040" fill="#f05e23" d="M379.778 57.647a19.416 19.416 0 0 0-15.329 30.421 1.6 1.6 0 1 0 2.628-1.81 16.24 16.24 0 1 1 7.713 6.02 1.608 1.608 0 0 0-1.705.359 1.6 1.6 0 0 0 .57 2.625 19.428 19.428 0 1 0 6.125-37.616z" transform="translate(-118.197 253.637)"/>
        <g id="Group" transform="translate(254 323)">
            <path id="Path_69969" fill="#eb5d33" stroke="#f05e23" stroke-linecap="round" stroke-linejoin="round" d="M16.023 967.4a4.917 4.917 0 0 0-3.571 1.531 5.372 5.372 0 0 0 0 7.377l7.468 7.833a.729.729 0 0 0 1.054 0l7.476-7.825a5.37 5.37 0 0 0 0-7.378 4.92 4.92 0 0 0-7.142 0l-.857.887-.857-.895a4.917 4.917 0 0 0-3.571-1.53zm0 1.425a3.49 3.49 0 0 1 2.525 1.115l1.38 1.448a.728.728 0 0 0 1.054 0l1.372-1.441a3.413 3.413 0 0 1 5.042 0 3.92 3.92 0 0 1 0 5.368q-3.472 3.633-6.945 7.264l-6.945-7.271a3.921 3.921 0 0 1 0-5.368 3.473 3.473 0 0 1 2.517-1.118z" transform="translate(-11.985 -967.397)"/>
        </g>
    </g>
</svg>
