<svg xmlns="http://www.w3.org/2000/svg" width="166.507" height="163" viewBox="0 0 166.507 163">
    <defs>
        <style>
            .cls-1{fill:#042875;opacity:.098}.cls-2{fill:#e6eaf1}.cls-3{fill:#03579c}
        </style>
    </defs>
    <g id="Group_19706" transform="translate(-134.949 -270.696)">
        <g id="Group_17039" transform="translate(134.47 270.411)">
            <ellipse id="Ellipse_1223" cx="29" cy="28" class="cls-1" rx="29" ry="28" transform="translate(93.479 107.285)"/>
            <circle id="Ellipse_1222" cx="19" cy="19" r="19" class="cls-1" transform="translate(34.479 .285)"/>
            <circle id="Ellipse_1221" cx="9.5" cy="9.5" r="9.5" class="cls-1" transform="translate(.479 73.285)"/>
        </g>
        <circle id="Ellipse_1224" cx="8" cy="8" r="8" class="cls-1" transform="translate(176.949 411.696)"/>
        <circle id="Ellipse_1225" cx="8" cy="8" r="8" class="cls-1" transform="translate(268.949 314.696)"/>
        <path id="Path_70004" d="M19.895 107.384L11 171.2a9.527 9.527 0 0 0 9.526 9.527h7.467a9.527 9.527 0 0 1-9.527-9.526l8.895-63.82a4.764 4.764 0 0 1 4.706-4.024H24.6a4.764 4.764 0 0 0-4.706 4.024z" class="cls-2" transform="translate(167.015 207.822)"/>
        <path id="Path_70005" d="M185.941 185.9l-7.461 53.524c0 .259.012.515.037.767a7.989 7.989 0 0 0 7.954 7.225h7.466a7.989 7.989 0 0 1-7.954-7.226c-.025-.25-.037-.506-.037-.765l7.461-53.524a3.994 3.994 0 0 1 3.947-3.377h-7.466a4 4 0 0 0-3.947 3.378z" class="cls-2" transform="translate(41.215 148.361)"/>
        <g id="Group_17007" transform="translate(176.522 286.704)">
            <path id="Path_70006" d="M271.739 214.86a1.493 1.493 0 0 0-1.493 1.493V224a11.711 11.711 0 1 1-23.422 0v-7.644a1.493 1.493 0 1 0-2.986 0V224a14.7 14.7 0 1 0 29.4 0v-7.644a1.493 1.493 0 0 0-1.499-1.496z" class="cls-3" transform="translate(-184.398 -162.633)"/>
            <path id="Path_70007" d="M71.8 193.642l.328-2.353a1.493 1.493 0 1 0-2.958-.412l-.328 2.353a1.493 1.493 0 0 0 1.273 1.685 1.511 1.511 0 0 0 .208.015 1.493 1.493 0 0 0 1.477-1.288z" class="cls-3" transform="translate(-52.941 -143.652)"/>
            <path id="Path_70008" d="M56.8 219.018l-3.132 22.468a1.493 1.493 0 0 0 1.273 1.685 1.516 1.516 0 0 0 .208.015 1.493 1.493 0 0 0 1.477-1.287l3.131-22.468a1.493 1.493 0 0 0-2.957-.412z" class="cls-3" transform="translate(-41.549 -164.822)"/>
            <path id="Path_70009" d="M104.117 52.353v-.025a5.4 5.4 0 0 0-5.347-4.637H74.917L72.911 33.3v-.025a6.226 6.226 0 0 0-6.181-5.287h-6.083v-5.747a17.237 17.237 0 0 0-34.474 0v5.749h-6.079a6.226 6.226 0 0 0-6.181 5.284v.025l-8.9 63.82a1.5 1.5 0 0 0-.013.207 11.033 11.033 0 0 0 11.02 11.02h30.934a9.5 9.5 0 0 0 9.208 7.222h34.046l-.063-2.986H56.164a6.5 6.5 0 0 1-6.5-6.4l3.158-22.661a1.493 1.493 0 0 0-2.958-.412l-3.1 22.252H16.02a8.044 8.044 0 0 1-8.034-7.936l8.879-63.7a3.254 3.254 0 0 1 3.229-2.752h6.079v8.9a1.493 1.493 0 1 0 2.986 0v-8.9h28.5v8.9a1.493 1.493 0 1 0 2.986 0v-8.9h6.079a3.254 3.254 0 0 1 3.229 2.752L71.9 47.69H59.5a5.4 5.4 0 0 0-5.347 4.638v.024l-2.9 20.8a1.493 1.493 0 1 0 2.958.412l2.9-20.785a2.489 2.489 0 0 1 2.47-2.1h39.111a2.489 2.489 0 0 1 2.47 2.1l5.158 37 2.958-.412zM57.661 27.989H29.16V22.24a14.251 14.251 0 0 1 28.5 0z" class="cls-3" transform="translate(-5 -5.004)"/>
        </g>
        <g id="Group_19291" fill="#f05e23" transform="translate(259.57 369.747)">
            <path id="Path_70011" d="M359.8 338.685a20.834 20.834 0 0 0-13.245 4.612 1.492 1.492 0 0 0 1.879 2.319 17.949 17.949 0 1 1-5.519 7.5 1.5 1.5 0 0 0-.328-1.611 1.493 1.493 0 0 0-2.443.5 20.942 20.942 0 1 0 19.656-13.32z" transform="translate(-338.701 -338.684)"/>
            <text id="_0" font-family="WorkSans-SemiBold, Work Sans" font-size="23px" font-weight="600" transform="translate(20.379 27.949)">
                <tspan x="-7.314" y="0">0</tspan>
            </text>
        </g>
    </g>
</svg>
