<svg xmlns="http://www.w3.org/2000/svg" width="142" height="128" viewBox="0 0 142 128">
    <defs>
        <style>
            .cls-1{fill:#042875;opacity:.098}.cls-2{fill:#03579c}.cls-6{stroke:none}
        </style>
    </defs>
    <g id="Group_19707" transform="translate(-145.686 -501.618)">
        <g id="Group_19635" transform="rotate(-180 143.686 314.618)">
            <circle id="Ellipse_1223" cx="23" cy="23" r="23" class="cls-1" transform="translate(85.686 -.383)"/>
            <ellipse id="Ellipse_1222" cx="12" cy="11.5" class="cls-1" rx="12" ry="11.5" transform="translate(117.686 104.617)"/>
            <circle id="Ellipse_1234" cx="13" cy="13" r="13" class="cls-1" transform="translate(-.314 51.617)"/>
            <ellipse id="Ellipse_1221" cx="5.5" cy="6" class="cls-1" rx="5.5" ry="6" transform="translate(48.686 10.617)"/>
        </g>
        <g id="Group_19636" transform="translate(176.659 559.709)">
            <path id="Path_70046" d="M40.9 138h-.012a1.258 1.258 0 0 0-1.238 1.249 1.223 1.223 0 0 0 1.226 1.232l1.3-.005h.012a1.213 1.213 0 0 0 1.238-1.2 1.245 1.245 0 0 0-1.226-1.258z" class="cls-2" transform="translate(-39.654 -138)"/>
            <path id="Path_70047" d="M98.365 140.682a1.215 1.215 0 0 0 1.238-1.2 1.267 1.267 0 0 0-1.231-1.278L66.192 138h-.007a1.279 1.279 0 0 0-1.238 1.279 1.235 1.235 0 0 0 1.231 1.241l32.18.163z" class="cls-2" transform="translate(-59.73 -138)"/>
        </g>
        <g id="Group_19637" transform="translate(161.486 510.572)">
            <g id="Group_19286">
                <path id="Path_70429" fill="none" stroke="#03579c" stroke-width="3px" d="M113.149 26.121v46.031a15.338 15.338 0 0 1-15.321 15.321H50.743L32.16 103.08a2.189 2.189 0 0 1-3.6-1.677v-13.93h-5.27A15.338 15.338 0 0 1 7.973 72.152V26.121A15.338 15.338 0 0 1 23.294 10.8h74.534a15.338 15.338 0 0 1 15.321 15.321zM54.168 44.462l-.547 3.395a2.691 2.691 0 0 0 3.879 2.819l3.061-1.576 3.064 1.569a2.69 2.69 0 0 0 3.883-2.819l-.547-3.395 2.439-2.42a2.688 2.688 0 0 0-1.482-4.563l-3.4-.527-1.552-3.065a2.688 2.688 0 0 0-4.8 0l-1.552 3.064-3.4.527a2.688 2.688 0 0 0-1.482 4.563zm37.859-7.514l-1.552-3.064a2.688 2.688 0 0 0-4.8 0l-1.552 3.064-3.4.527a2.688 2.688 0 0 0-1.482 4.563l2.436 2.423c-.784 4.861.214 6.242 1.681 6.479a2.7 2.7 0 0 0 1.659-.265l3.064-1.569 3.064 1.569a2.69 2.69 0 0 0 3.883-2.819l-.547-3.395 2.436-2.423a2.688 2.688 0 0 0 0-3.8zm-65.383 7.514l-.544 3.395a2.69 2.69 0 0 0 3.874 2.819l3.064-1.569 3.062 1.569a2.69 2.69 0 0 0 3.883-2.819l-.547-3.395 2.436-2.423a2.688 2.688 0 0 0-1.482-4.563l-3.4-.527-1.55-3.065a2.688 2.688 0 0 0-4.8 0l-1.552 3.064c-4.865.757-5.868 2.134-5.638 3.6a2.685 2.685 0 0 0 .759 1.491z" transform="translate(-7.973 -10.8)"/>
            </g>
            <g id="Path_72489" fill="#fff">
                <path d="M17.818 34.636c-4.492 0-8.716-1.75-11.892-4.926C2.749 26.534 1 22.31 1 17.818c0-4.492 1.75-8.716 4.926-11.892C9.102 2.749 13.326 1 17.818 1c4.492 0 8.716 1.75 11.892 4.926 3.177 3.176 4.926 7.4 4.926 11.892 0 4.492-1.75 8.716-4.926 11.892-3.176 3.177-7.4 4.926-11.892 4.926z" class="cls-6" transform="translate(87.009 53.869)"/>
                <path fill="#03579c" d="M17.818 2C13.593 2 9.621 3.645 6.633 6.633 3.645 9.621 2 13.593 2 17.818c0 4.225 1.645 8.197 4.633 11.185 2.988 2.988 6.96 4.633 11.185 4.633 4.225 0 8.197-1.645 11.185-4.633 2.988-2.988 4.633-6.96 4.633-11.185 0-4.225-1.645-8.197-4.633-11.185C26.015 3.645 22.043 2 17.818 2m0-2c9.84 0 17.818 7.977 17.818 17.818 0 9.84-7.977 17.818-17.818 17.818C7.978 35.636 0 27.659 0 17.818 0 7.978 7.977 0 17.818 0z" transform="translate(87.009 53.869)"/>
            </g>
            <g id="Ellipse_1366" fill="#fff" stroke="#eb5d33" stroke-width="2px" transform="translate(97.2 64.046)">
                <ellipse cx="7.5" cy="8" class="cls-6" rx="7.5" ry="8"/>
                <ellipse cx="7.5" cy="8" fill="none" rx="6.5" ry="7"/>
            </g>
        </g>
    </g>
</svg>
