<svg xmlns="http://www.w3.org/2000/svg" width="152" height="146" viewBox="0 0 152 146">
    <defs>
        <style>
            .cls-1{fill:#042875;opacity:.098}.cls-3{fill:#03579c}.cls-5{fill:#f05e23}
        </style>
    </defs>
    <g id="Group_19299" transform="translate(-118.22 -261.795)">
        <g id="Group_17039" transform="translate(118 261.999)">
            <circle id="Ellipse_1223" cx="19" cy="19" r="19" class="cls-1" transform="translate(103.22 18.796)"/>
            <ellipse id="Ellipse_1222" cx="12.5" cy="13" class="cls-1" rx="12.5" ry="13" transform="translate(127.22 119.796)"/>
            <ellipse id="Ellipse_1234" cx="12.5" cy="13" class="cls-1" rx="12.5" ry="13" transform="translate(.22 51.796)"/>
            <circle id="Ellipse_1221" cx="6.5" cy="6.5" r="6.5" class="cls-1" transform="translate(73.22 -.204)"/>
        </g>
        <path id="Path_70049" fill="#e6eaf1" d="M65.819 90.4l4.435-.022A6.777 6.777 0 0 1 64 83.66l-.24-49.92a6.779 6.779 0 0 1 6.743-6.81h-4.99a6.779 6.779 0 0 0-6.743 6.81l.24 49.92a6.778 6.778 0 0 0 6.81 6.743z" transform="translate(97.619 271.076)"/>
        <g id="Group_19298" transform="translate(153.969 289.405)">
            <g id="noun_monthly_calendar_1814995">
                <g id="Group_19295">
                    <path id="Path_70432" d="M23.581 958.362a1.713 1.713 0 0 0-1.713 1.713v10.518a6.851 6.851 0 1 0 3.426 0v-10.518a1.713 1.713 0 0 0-1.713-1.713zm39.395 0a1.713 1.713 0 0 0-1.713 1.713v10.518a6.851 6.851 0 1 0 3.426 0v-10.518a1.713 1.713 0 0 0-1.714-1.713zM11.591 963.5A8.612 8.612 0 0 0 3 972.091v53.044a8.612 8.612 0 0 0 8.591 8.591h63.32a8.612 8.612 0 0 0 8.591-8.591v-53.043a8.612 8.612 0 0 0-8.591-8.591H69.8a1.713 1.713 0 1 0 0 3.426h5.112a5.123 5.123 0 0 1 5.165 5.165v15.388H6.426v-15.388a5.122 5.122 0 0 1 5.165-5.165H16.7a1.713 1.713 0 1 0 0-3.426zm18.814 0a1.713 1.713 0 1 0 0 3.426H56.1a1.713 1.713 0 1 0 0-3.426zm-6.824 10.277a3.426 3.426 0 1 1-3.426 3.426 3.4 3.4 0 0 1 3.426-3.425zm39.395 0a3.426 3.426 0 1 1-3.426 3.423 3.4 3.4 0 0 1 3.425-3.422zm-56.55 17.129h73.651v34.229a5.123 5.123 0 0 1-5.165 5.165H11.591a5.123 5.123 0 0 1-5.165-5.165z" class="cls-3" transform="translate(-3 -958.362)"/>
                </g>
            </g>
            <g id="Group_19296" transform="translate(12.401 43.63)">
                <path id="Path_70051" d="M193.265 241.771a1.521 1.521 0 0 0 0 3.042h5.158a1.521 1.521 0 1 0 0-3.042z" class="cls-3" transform="translate(-171.86 -228.874)"/>
                <path id="Path_70052" d="M159.166 192.408a1.521 1.521 0 0 0-1.521-1.521h-42.824a1.521 1.521 0 0 0 0 3.042h42.824a1.521 1.521 0 0 0 1.521-1.521z" class="cls-3" transform="translate(-113.3 -190.887)"/>
                <path id="Path_70053" d="M114.821 241.771a1.521 1.521 0 0 0 0 3.042h13.348a1.521 1.521 0 0 0 0-3.042z" class="cls-3" transform="translate(-113.3 -228.874)"/>
                <circle id="Ellipse_1362" cx="27.5" cy="27.5" r="27.5" fill="#fff" transform="translate(36.85 .759)"/>
                <g id="Group_19292" transform="translate(36.547 .294)">
                    <path id="Path_70056" d="M343.748 346.963a1.521 1.521 0 0 0 1.521-1.521v-16.348a1.521 1.521 0 0 0-3.042 0v16.348a1.521 1.521 0 0 0 1.521 1.521z" class="cls-5" transform="translate(-315.607 -312.918)"/>
                    <path id="Path_70057" d="M342.159 421.812a2.061 2.061 0 1 0-2.061-2.061 2.061 2.061 0 0 0 2.061 2.061z" class="cls-5" transform="translate(-314.017 -380.191)"/>
                    <path id="Path_70058" d="M265.351 326.032a28.137 28.137 0 1 0-17.715-49.981 1.521 1.521 0 0 0 1.907 2.367 25.082 25.082 0 1 1-6.161 7.358 1.522 1.522 0 0 0-.249-1.817 1.523 1.523 0 0 0-2.412.352 28.122 28.122 0 0 0 24.632 41.723z" class="cls-5" transform="translate(-237.21 -269.757)"/>
                </g>
            </g>
        </g>
    </g>
</svg>
