<svg xmlns="http://www.w3.org/2000/svg" width="23.777" height="26.806" viewBox="0 0 23.777 26.806"><defs><style>.a{fill:none;stroke:#2c516c;}</style></defs><g transform="translate(-1241.5 -45.5)"><g transform="translate(1242 46)"><g transform="translate(0 0)"><g transform="translate(0 0)"><path class="a" d="M25.688,31.605a2.7,2.7,0,0,0,2.7-2.7H22.993A2.7,2.7,0,0,0,25.688,31.605Zm8.693-7.057v-7.36a8.707,8.707,0,0,0-6.694-8.481V7.8a2,2,0,1,0-4,0v.909A8.707,8.707,0,0,0,17,17.188v7.36l-2.7,2.7v1.333H37.077V27.244Z" transform="translate(-14.3 -5.8)"/></g></g></g></g></svg>