<svg xmlns="http://www.w3.org/2000/svg" width="38" height="38" viewBox="0 0 38 38"><defs><style>.a{fill:#dfdfdf;}.b{fill:#1c1a1a;}</style></defs><g transform="translate(0.01 0.398)"><circle class="a" cx="19" cy="19" r="19" transform="translate(-0.01 -0.398)"/><g transform="translate(11.02 12.561)"><g transform="translate(0 0)"><path class="b" d="M16.437,49.581a7.026,7.026,0,0,1-1.942.532,3.351,3.351,0,0,0,1.482-1.863,6.734,6.734,0,0,1-2.137.816,3.369,3.369,0,0,0-5.829,2.3,3.47,3.47,0,0,0,.078.768,9.538,9.538,0,0,1-6.946-3.525,3.371,3.371,0,0,0,1.036,4.5A3.328,3.328,0,0,1,.657,52.7v.037a3.385,3.385,0,0,0,2.7,3.311,3.363,3.363,0,0,1-.883.111,2.979,2.979,0,0,1-.638-.058,3.4,3.4,0,0,0,3.149,2.347A6.771,6.771,0,0,1,.806,59.889,6.311,6.311,0,0,1,0,59.843a9.487,9.487,0,0,0,5.169,1.512,9.525,9.525,0,0,0,9.591-9.589c0-.149-.005-.293-.012-.436A6.722,6.722,0,0,0,16.437,49.581Z" transform="translate(0 -48)"/></g></g></g></svg>