<svg xmlns="http://www.w3.org/2000/svg" width="38" height="38" viewBox="0 0 38 38"><defs><style>.a{fill:#dfdfdf;}.b{fill:#1c1a1a;}</style></defs><g transform="translate(0.397 0.398)"><circle class="a" cx="19" cy="19" r="19" transform="translate(-0.397 -0.398)"/><path class="b" d="M13.719-4.547a1.755,1.755,0,0,0-1.235-1.235A41,41,0,0,0,7-6.082a42.6,42.6,0,0,0-5.481.289A1.79,1.79,0,0,0,.288-4.547,18.491,18.491,0,0,0,0-1.178,18.423,18.423,0,0,0,.288,2.191,1.755,1.755,0,0,0,1.523,3.426,41.075,41.075,0,0,0,7,3.726a42.6,42.6,0,0,0,5.481-.289A1.755,1.755,0,0,0,13.719,2.2a18.5,18.5,0,0,0,.288-3.369A17.553,17.553,0,0,0,13.719-4.547ZM5.608.922v-4.2l3.646,2.1Zm0,0" transform="translate(12.234 20.461)"/></g></svg>