<svg xmlns="http://www.w3.org/2000/svg" width="22.149" height="22.16" viewBox="0 0 22.149 22.16"><defs><style>.a{fill:none;stroke:#2c516c;}</style></defs><g transform="translate(17789.5 7240.5)"><g transform="translate(-17789 -7240)"><g transform="translate(0 0)"><path class="a" d="M38.094,34.394a3.191,3.191,0,0,0-3.169,3.179v3.169a3.189,3.189,0,0,0,3.169,3.177h3.169a3.2,3.2,0,0,0,3.179-3.177V37.574a3.2,3.2,0,0,0-3.179-3.179Zm11.632,0a3.191,3.191,0,0,0-3.169,3.179v3.169a3.189,3.189,0,0,0,3.169,3.177h3.179a3.189,3.189,0,0,0,3.169-3.177V37.574a3.191,3.191,0,0,0-3.169-3.179ZM38.094,46.037a3.182,3.182,0,0,0-3.169,3.169v3.171a3.189,3.189,0,0,0,3.169,3.177h3.169a3.2,3.2,0,0,0,3.179-3.177V49.206a3.191,3.191,0,0,0-3.179-3.169Zm11.632,0a3.182,3.182,0,0,0-3.169,3.169v3.171a3.189,3.189,0,0,0,3.169,3.177h3.179a3.189,3.189,0,0,0,3.169-3.177V49.206a3.182,3.182,0,0,0-3.169-3.169Z" transform="translate(-34.926 -34.394)"/></g></g></g></svg>