<svg xmlns="http://www.w3.org/2000/svg" width="194" height="208" viewBox="0 0 194 208">
    <defs>
        <style>
            .cls-1,.cls-3{fill:#03579c}.cls-2{fill:#f05e23}.cls-3,.cls-4{opacity:.098}.cls-4{fill:#042875}
        </style>
    </defs>
    <g id="Group_19583" transform="translate(18817.221 -2478.201)">
        <g id="phone_2_" transform="translate(-18764.881 2527.781)">
            <path id="XMLID_486_" d="M62.225 14.869H7.884A7.893 7.893 0 0 0 0 22.753v104.739a7.893 7.893 0 0 0 7.884 7.884h54.341a7.893 7.893 0 0 0 7.884-7.884V22.753a7.893 7.893 0 0 0-7.884-7.884zM5.721 32.251h58.667v77.96H5.721zm.387-11.661H64a.388.388 0 0 1 .387.388v5.552H5.721v-5.553a.388.388 0 0 1 .387-.387zM64 129.655H6.108a.388.388 0 0 1-.387-.388v-13.334h58.667v13.334a.388.388 0 0 1-.387.388z" class="cls-1" transform="translate(0 -14.869)"/>
            <circle id="XMLID_485_" cx="4.194" cy="4.194" r="4.194" class="cls-2" transform="translate(30.861 103.56)"/>
            <g id="Group_19605" transform="translate(-2.012 9.588)">
                <g id="Group_19602" transform="rotate(90 46.472 66.28)">
                    <g id="Group_19596">
                        <path id="Path_70350" d="M60.535 12.81C52.435 4.052 41.763 0 30.454 0h-.276A39.824 39.824 0 0 0 .654 13.6c-.941 1.048-.857 1.9.191 2.843a2.549 2.549 0 0 0 3.6-.194c6.845-7.611 16-11.078 25.768-11.145a34.637 34.637 0 0 1 26.574 11.17 2.55 2.55 0 0 0 3.747-3.461z" class="cls-1"/>
                    </g>
                </g>
                <g id="Group_19603" transform="rotate(90 37.063 64.612)">
                    <g id="Group_19598">
                        <path id="Path_70351" d="M45.222 11.11C39.139 3.872 31.128.007 22.532 0 14.139.074 6.339 4.03.57 11.143c-.888 1.094-.719 1.94.375 2.827a2.556 2.556 0 0 0 3.588-.37 22.64 22.64 0 0 1 18.042-8.5 23.584 23.584 0 0 1 18.739 8.53 2.548 2.548 0 0 0 3.594.311c1.079-.907 1.22-1.752.314-2.831z" class="cls-1"/>
                    </g>
                </g>
                <g id="Group_19604" transform="rotate(90 26.314 63.975)">
                    <g id="Group_19600">
                        <path id="Path_70352" d="M24.909 5.953A16.077 16.077 0 0 0 12.68 0h-.128A15.472 15.472 0 0 0 .57 5.989c-.888 1.094-.719 1.94.375 2.827a2.547 2.547 0 0 0 3.585-.378 10.467 10.467 0 0 1 8.065-4.1h.087A10.867 10.867 0 0 1 21 8.474a2.551 2.551 0 0 0 3.594.311c1.083-.905 1.221-1.753.315-2.832z" class="cls-1"/>
                    </g>
                </g>
            </g>
        </g>
        <g id="Group_17039" transform="translate(-18814.043 2482.415)">
            <circle id="Ellipse_1223" cx="48" cy="48" r="48" class="cls-3" transform="translate(94.822 107.786)"/>
            <circle id="Ellipse_1222" cx="35.5" cy="35.5" r="35.5" class="cls-3" transform="translate(32.822 -4.214)"/>
            <circle id="Ellipse_1221" cx="15.5" cy="15.5" r="15.5" class="cls-3" transform="translate(-3.178 88.786)"/>
        </g>
        <circle id="Ellipse_1224" cx="8.5" cy="8.5" r="8.5" class="cls-4" transform="translate(-18766.221 2641.201)"/>
        <circle id="Ellipse_1225" cx="10.5" cy="10.5" r="10.5" class="cls-4" transform="translate(-18670.221 2518.201)"/>
        <g id="Group_19582" transform="rotate(-8 8951.188 135409.546)">
            <path id="Path_70007" d="M4.726 6.445L5.248 2.7a2.375 2.375 0 1 0-4.7-.655L.023 5.789a2.375 2.375 0 0 0 2.025 2.68 2.4 2.4 0 0 0 .331.023 2.375 2.375 0 0 0 2.347-2.047z" class="cls-2" transform="translate(6.002)"/>
            <path id="Path_70008" d="M5 1.979L.023 37.709a2.374 2.374 0 1 0 4.7.655L9.7 2.635A2.375 2.375 0 0 0 5 1.979z" class="cls-2" transform="translate(0 11.154)"/>
        </g>
    </g>
</svg>
