<svg xmlns="http://www.w3.org/2000/svg" width="130" height="129.001" viewBox="0 0 130 129.001">
    <defs>
        <style>
            .cls-1{fill:#042875;opacity:.098}.cls-3{fill:#03579c}.cls-4{fill:#f05e23}
        </style>
    </defs>
    <g id="Group_19759" transform="translate(-7343.507 -20656.816)">
        <g id="Group_19302" transform="translate(7343.032 20656.984)">
            <ellipse id="Ellipse_1223" cx="22" cy="21.5" class="cls-1" rx="22" ry="21.5" transform="translate(86.475 58.831)"/>
            <ellipse id="Ellipse_1222" cx="14.5" cy="15" class="cls-1" rx="14.5" ry="15" transform="translate(12.475 -.169)"/>
            <circle id="Ellipse_1221" cx="8" cy="8" r="8" class="cls-1" transform="translate(.475 54.831)"/>
        </g>
        <circle id="Ellipse_1367" cx="6.5" cy="6.5" r="6.5" class="cls-1" transform="translate(7371.507 20772.816)"/>
        <circle id="Ellipse_1368" cx="7" cy="7" r="7" class="cls-1" transform="translate(7456.507 20689.816)"/>
        <path id="Path_70433" fill="#d4e1f4" d="M11 201.791a36.327 36.327 0 0 0 8.758 23.748L13.651 239.9l7.885-1.379 5.52-12.981a36.651 36.651 0 0 1 24.272-60.246q-1.8-.178-3.649-.181A36.679 36.679 0 0 0 11 201.791z" transform="translate(7341.386 20531.428)"/>
        <g id="Group_19303" transform="translate(7359.795 20706.25)">
            <path id="Path_70370" d="M106.011 205.937a1.46 1.46 0 0 0-1.909-.786 29.279 29.279 0 0 0-2.908 1.407 1.46 1.46 0 0 0 1.415 2.554 26.356 26.356 0 0 1 2.616-1.265 1.46 1.46 0 0 0 .786-1.91z" class="cls-3" transform="translate(-86.091 -205.038)"/>
            <path id="Path_70371" d="M52 223.048a29.2 29.2 0 0 0-10.548 22.5 1.46 1.46 0 0 0 2.919 0 26.281 26.281 0 0 1 9.5-20.257A1.46 1.46 0 1 0 52 223.048z" class="cls-3" transform="translate(-41.454 -218.411)"/>
        </g>
        <path id="Path_70434" d="M270.774 71.609a38.141 38.141 0 0 0-75.943-5.065l2.895.386a35.221 35.221 0 0 1 70.129 4.679 34.866 34.866 0 0 1-8.409 22.8 1.46 1.46 0 0 0-.232 1.518l5.056 11.888-18.651-3.263a1.463 1.463 0 0 0-.759.069 35.192 35.192 0 0 1-21.339 1.014l-.754 2.821a38.109 38.109 0 0 0 22.733-.956l20.913 3.659a1.46 1.46 0 0 0 1.595-2.009l-5.759-13.541a37.759 37.759 0 0 0 8.525-24z" class="cls-4" transform="translate(7202.277 20631.043)"/>
        <path id="Path_70435" d="M65.974 168.809a1.463 1.463 0 0 0-.17-2.211 38.114 38.114 0 0 0-52.279 54.649l-5.759 13.54a1.46 1.46 0 0 0 1.595 2.013l20.913-3.658a38.114 38.114 0 0 0 42.79-59.5 1.455 1.455 0 0 0-2.168-.115 1.46 1.46 0 0 0-.108 1.941 35.191 35.191 0 0 1-39.873 54.8 1.468 1.468 0 0 0-.759-.069L11.5 233.458l5.06-11.888a1.453 1.453 0 0 0-.225-1.508 34.866 34.866 0 0 1-8.416-22.812 35.2 35.2 0 0 1 56.148-28.306 1.462 1.462 0 0 0 1.907-.135z" class="cls-3" transform="translate(7345.927 20535.967)"/>
        <g id="Group_19304" transform="translate(7443.867 20674.393)">
            <path id="Path_70370-2" d="M100.554 205.937a1.46 1.46 0 0 1 1.909-.786 29.279 29.279 0 0 1 2.908 1.407 1.46 1.46 0 1 1-1.415 2.554 26.35 26.35 0 0 0-2.616-1.265 1.46 1.46 0 0 1-.786-1.91z" class="cls-4" transform="translate(-100.442 -205.038)"/>
            <path id="Path_70371-2" d="M43.848 223.048a29.2 29.2 0 0 1 10.548 22.5 1.46 1.46 0 0 1-2.919 0 26.281 26.281 0 0 0-9.5-20.257 1.46 1.46 0 1 1 1.868-2.243z" class="cls-4" transform="translate(-34.363 -218.411)"/>
        </g>
    </g>
</svg>
